<svg width="33" height="33" viewBox="0 0 33 33" fill="none" xmlns="http://www.w3.org/2000/svg">
<path d="M28.875 26.1249V16.867C28.875 16.121 28.7232 15.3828 28.4289 14.6973C28.1347 14.0118 27.704 13.3934 27.1631 12.8795L18.3948 4.55117C17.8837 4.06564 17.2056 3.79492 16.5007 3.79492C15.7957 3.79492 15.1177 4.06564 14.6066 4.55117L5.83687 12.8795C5.29602 13.3934 4.86535 14.0118 4.57106 14.6973C4.27676 15.3828 4.125 16.121 4.125 16.867V26.1249C4.125 26.8543 4.41473 27.5537 4.93046 28.0695C5.44618 28.5852 6.14565 28.8749 6.875 28.8749H26.125C26.8543 28.8749 27.5538 28.5852 28.0695 28.0695C28.5853 27.5537 28.875 26.8543 28.875 26.1249Z" stroke="black" stroke-width="2" stroke-linecap="round" stroke-linejoin="round"/>
</svg>
