<svg width="41" height="42" viewBox="0 0 41 42" fill="none" xmlns="http://www.w3.org/2000/svg">
<g clip-path="url(#clip0_9_146)">
<path d="M24.0926 26.8958C25.6942 26.8958 27.1266 25.6252 27.1266 23.7982C27.1266 21.6142 25.7762 20.5695 24.1541 20.5695C22.6525 20.5695 21.1611 21.5854 21.1611 23.7457C21.1611 25.8904 22.5526 26.8958 24.0926 26.8958Z" fill="#808080"/>
<path d="M8.96875 0C9.30856 0 9.63445 0.138281 9.87473 0.384422C10.115 0.630564 10.25 0.964403 10.25 1.3125V2.625H30.75V1.3125C30.75 0.964403 30.885 0.630564 31.1253 0.384422C31.3655 0.138281 31.6914 0 32.0312 0C32.3711 0 32.6969 0.138281 32.9372 0.384422C33.1775 0.630564 33.3125 0.964403 33.3125 1.3125V2.625H35.875C37.2342 2.625 38.5378 3.17812 39.4989 4.16269C40.46 5.14726 41 6.48261 41 7.875V36.75C41 38.1424 40.46 39.4777 39.4989 40.4623C38.5378 41.4469 37.2342 42 35.875 42H5.125C3.76577 42 2.4622 41.4469 1.50108 40.4623C0.539954 39.4777 0 38.1424 0 36.75V7.875C0 6.48261 0.539954 5.14726 1.50108 4.16269C2.4622 3.17812 3.76577 2.625 5.125 2.625H7.6875V1.3125C7.6875 0.964403 7.82249 0.630564 8.06277 0.384422C8.30305 0.138281 8.62894 0 8.96875 0ZM34.4759 7.875H6.52156C5.75281 7.875 5.125 8.463 5.125 9.1875V11.8125C5.125 12.537 5.75025 13.125 6.52156 13.125H34.4784C35.2472 13.125 35.875 12.537 35.875 11.8125V9.1875C35.875 8.463 35.2498 7.875 34.4759 7.875ZM23.9235 33.5737C27.1471 33.5737 29.0485 30.7729 29.0485 26.0347C29.0485 20.958 27.0472 19.0312 24.0439 19.0312C21.6711 19.0312 19.4391 20.7952 19.4391 23.7799C19.4391 26.8249 21.5506 28.4261 23.7339 28.4261C25.6455 28.4261 26.8858 27.4391 27.2778 26.3524H27.347C27.3368 29.8069 26.1657 32.0329 24.0029 32.0329C22.3014 32.0329 21.4199 30.8516 21.3123 29.8804H19.5596C19.68 31.5604 21.0817 33.5711 23.9235 33.5711V33.5737ZM16.5179 19.3069H14.8958C13.7333 19.9403 12.6097 20.646 11.5312 21.42V23.2444C12.4922 22.5697 14.0143 21.6169 14.7549 21.2048H14.7856V33.306H16.5153V19.3043L16.5179 19.3069Z" fill="#808080"/>
</g>
<defs>
<clipPath id="clip0_9_146">
<rect width="41" height="42" fill="white"/>
</clipPath>
</defs>
</svg>
