<svg width="78" height="88" viewBox="0 0 78 88" fill="none" xmlns="http://www.w3.org/2000/svg">
<path d="M48.243 73.3335H21.125C16.6433 73.3335 13 69.2232 13 64.1668C13 59.1105 16.6433 55.0002 21.125 55.0002H43.875C50.1475 55.0002 55.25 49.2435 55.25 42.1668C55.25 35.0902 50.1475 29.3335 43.875 29.3335H28.0767C26.8832 31.9731 25.4052 34.4362 23.6763 36.6668H43.875C46.5628 36.6668 48.75 39.1345 48.75 42.1668C48.75 45.1992 46.5628 47.6668 43.875 47.6668H21.125C13.0618 47.6668 6.5 55.0698 6.5 64.1668C6.5 73.2638 13.0618 80.6668 21.125 80.6668H52.3022C50.7075 78.4036 49.3457 75.9434 48.243 73.3335ZM16.25 7.3335C10.8745 7.3335 6.5 12.2688 6.5 18.3335C6.5 30.0228 16.25 36.6668 16.25 36.6668C16.25 36.6668 26 30.0192 26 18.3335C26 12.2688 21.6255 7.3335 16.25 7.3335ZM16.25 23.8335C15.6096 23.8333 14.9755 23.6907 14.3839 23.414C13.7923 23.1373 13.2549 22.7318 12.8022 22.2208C12.3495 21.7097 11.9905 21.103 11.7456 20.4354C11.5007 19.7678 11.3748 19.0523 11.375 18.3298C11.3752 17.6073 11.5016 16.8919 11.7468 16.2245C11.9921 15.5571 12.3515 14.9507 12.8045 14.44C13.2575 13.9293 13.7952 13.5242 14.3869 13.2479C14.9787 12.9717 15.6128 12.8296 16.2533 12.8298C17.5466 12.8303 18.7868 13.4104 19.7011 14.4426C20.6153 15.4747 21.1287 16.8743 21.1283 18.3335C21.1278 19.7927 20.6136 21.1919 19.6988 22.2233C18.7839 23.2548 17.5434 23.834 16.25 23.8335Z" fill="black"/>
<path d="M61.75 51.3335C56.3745 51.3335 52 56.2688 52 62.3335C52 74.0228 61.75 80.6668 61.75 80.6668C61.75 80.6668 71.5 74.0192 71.5 62.3335C71.5 56.2688 67.1255 51.3335 61.75 51.3335ZM61.75 67.8335C61.1096 67.8333 60.4755 67.6907 59.8839 67.414C59.2923 67.1373 58.7549 66.7318 58.3022 66.2207C57.8495 65.7097 57.4905 65.103 57.2456 64.4354C57.0007 63.7678 56.8748 63.0523 56.875 62.3298C56.8752 61.6073 57.0016 60.8919 57.2468 60.2245C57.4921 59.5571 57.8515 58.9507 58.3045 58.44C58.7575 57.9293 59.2952 57.5242 59.8869 57.2479C60.4787 56.9717 61.1128 56.8296 61.7532 56.8298C63.0466 56.8303 64.2868 57.4104 65.2011 58.4426C66.1153 59.4747 66.6287 60.8743 66.6282 62.3335C66.6278 63.7927 66.1136 65.1919 65.1988 66.2233C64.2839 67.2548 63.0434 67.834 61.75 67.8335Z" fill="black"/>
</svg>
