<svg width="42" height="45" viewBox="0 0 42 45" fill="none" xmlns="http://www.w3.org/2000/svg">
<path d="M25.977 37.5H11.375C8.96175 37.5 7 35.3981 7 32.8125C7 30.2269 8.96175 28.125 11.375 28.125H23.625C27.0025 28.125 29.75 25.1812 29.75 21.5625C29.75 17.9438 27.0025 15 23.625 15H15.1182C14.4756 16.3498 13.6797 17.6093 12.7487 18.75H23.625C25.0723 18.75 26.25 20.0119 26.25 21.5625C26.25 23.1131 25.0723 24.375 23.625 24.375H11.375C7.03325 24.375 3.5 28.1606 3.5 32.8125C3.5 37.4644 7.03325 41.25 11.375 41.25H28.1628C27.304 40.0927 26.5707 38.8346 25.977 37.5ZM8.75 3.75C5.8555 3.75 3.5 6.27375 3.5 9.375C3.5 15.3525 8.75 18.75 8.75 18.75C8.75 18.75 14 15.3506 14 9.375C14 6.27375 11.6445 3.75 8.75 3.75ZM8.75 12.1875C8.40517 12.1874 8.06373 12.1145 7.74519 11.973C7.42665 11.8315 7.13724 11.6241 6.89348 11.3628C6.64973 11.1015 6.4564 10.7912 6.32455 10.4499C6.19269 10.1085 6.12489 9.74259 6.125 9.37313C6.12511 9.00366 6.19315 8.63784 6.32522 8.29654C6.45729 7.95525 6.6508 7.64516 6.89472 7.384C7.13864 7.12283 7.42817 6.9157 7.7468 6.77443C8.06543 6.63315 8.40692 6.5605 8.75175 6.56063C9.44818 6.56087 10.116 6.85753 10.6083 7.38532C11.1006 7.91312 11.377 8.62883 11.3767 9.375C11.3765 10.1212 11.0996 10.8367 10.607 11.3641C10.1144 11.8916 9.44643 12.1877 8.75 12.1875Z" fill="black"/>
<path d="M33.25 26.25C30.3555 26.25 28 28.7737 28 31.875C28 37.8525 33.25 41.25 33.25 41.25C33.25 41.25 38.5 37.8506 38.5 31.875C38.5 28.7737 36.1445 26.25 33.25 26.25ZM33.25 34.6875C32.9052 34.6874 32.5637 34.6145 32.2452 34.473C31.9266 34.3315 31.6372 34.1241 31.3935 33.8628C31.1497 33.6015 30.9564 33.2912 30.8245 32.9499C30.6927 32.6085 30.6249 32.2426 30.625 31.8731C30.6251 31.5037 30.6931 31.1378 30.8252 30.7965C30.9573 30.4552 31.1508 30.1452 31.3947 29.884C31.6386 29.6228 31.9282 29.4157 32.2468 29.2744C32.5654 29.1332 32.9069 29.0605 33.2517 29.0606C33.9482 29.0609 34.616 29.3575 35.1083 29.8853C35.6005 30.4131 35.877 31.1288 35.8767 31.875C35.8765 32.6212 35.5996 33.3367 35.107 33.8641C34.6144 34.3916 33.9464 34.6877 33.25 34.6875Z" fill="black"/>
</svg>
