<svg width="39" height="41" viewBox="0 0 39 41" fill="none" xmlns="http://www.w3.org/2000/svg">
<path d="M23.5218 33.2271H3.89995C3.76453 33.2271 3.64266 33.1702 3.53433 33.0563C3.42599 32.9424 3.37183 32.8143 3.37183 32.6719C3.37183 31.3337 3.39241 30.159 3.43358 29.1476C3.47474 28.1363 3.53541 27.2326 3.61558 26.4365H16.3718C18.2406 26.4365 19.832 25.7389 21.1461 24.3438C22.4602 22.9486 23.1167 21.2403 23.1156 19.2188C23.1156 17.7667 22.7299 16.4496 21.9586 15.2674C21.1872 14.0852 20.151 13.21 18.85 12.6417L13.4062 10.3782C14.8687 9.52399 16.406 8.87653 18.018 8.43578C19.63 7.99503 21.3021 7.77409 23.0343 7.77295C26.501 7.77295 29.4666 9.00466 31.9312 11.4681C34.3958 13.9315 35.6281 16.9421 35.6281 20.5C35.6281 24.0591 34.4564 27.0703 32.1132 29.5337C29.7699 31.9971 26.9062 33.2283 23.5218 33.2271ZM4.1437 23.0625C4.68537 21.041 5.48433 19.1402 6.54058 17.3601C7.59683 15.58 8.8562 14.0072 10.3187 12.6417L17.6312 15.7594C18.3354 16.0726 18.8906 16.5424 19.2968 17.1688C19.7031 17.7952 19.9062 18.4785 19.9062 19.2188C19.9062 20.3007 19.5612 21.2118 18.8711 21.9521C18.181 22.6924 17.3208 23.0625 16.2906 23.0625H4.1437Z" fill="black"/>
</svg>
