<svg width="49" height="49" viewBox="0 0 49 49" fill="none" xmlns="http://www.w3.org/2000/svg">
<path d="M19.9062 26.5417C19.9062 25.3233 20.3902 24.1549 21.2517 23.2934C22.1132 22.4319 23.2817 21.9479 24.5 21.9479C25.7183 21.9479 26.8868 22.4319 27.7483 23.2934C28.6098 24.1549 29.0938 25.3233 29.0938 26.5417C29.0938 27.76 28.6098 28.9284 27.7483 29.7899C26.8868 30.6514 25.7183 31.1354 24.5 31.1354C23.2817 31.1354 22.1132 30.6514 21.2517 29.7899C20.3902 28.9284 19.9062 27.76 19.9062 26.5417Z" fill="black"/>
<path fill-rule="evenodd" clip-rule="evenodd" d="M15.2593 15.6024C15.2593 14.76 15.4253 13.9258 15.7477 13.1475C16.07 12.3692 16.5426 11.6621 17.1382 11.0664C18.3413 9.86336 19.9729 9.1875 21.6743 9.1875H27.3256C29.0269 9.1875 30.6586 9.86336 31.8616 11.0664C33.0647 12.2694 33.7405 13.9011 33.7405 15.6024C33.7409 15.617 33.7464 15.631 33.7561 15.6418C33.7659 15.6527 33.7791 15.6597 33.7936 15.6616L38.3465 16.0291C40.3861 16.1965 42.0623 17.7033 42.4441 19.7143C43.4148 24.844 43.4867 30.1033 42.6565 35.2575L42.4584 36.4907C42.2767 37.6205 41.7214 38.6568 40.8811 39.4337C40.0409 40.2106 38.9644 40.6833 37.8238 40.7762L33.8569 41.0967C27.6292 41.6025 21.3707 41.6025 15.143 41.0967L11.176 40.7762C10.0351 40.6832 8.95841 40.2103 8.11816 39.4329C7.27791 38.6556 6.72271 37.6189 6.54143 36.4887L6.34339 35.2575C5.51243 30.1023 5.58593 24.845 6.55572 19.7143C6.74116 18.7364 7.24251 17.8464 7.98277 17.181C8.72303 16.5156 9.66126 16.1117 10.6533 16.0312L15.2063 15.6616C15.2211 15.6606 15.2349 15.6538 15.2448 15.6428C15.2547 15.6317 15.2599 15.6172 15.2593 15.6024ZM24.4999 18.8854C22.4694 18.8854 20.522 19.6921 19.0861 21.1279C17.6503 22.5637 16.8437 24.5111 16.8437 26.5417C16.8437 28.5722 17.6503 30.5196 19.0861 31.9555C20.522 33.3913 22.4694 34.1979 24.4999 34.1979C26.5305 34.1979 28.4779 33.3913 29.9137 31.9555C31.3495 30.5196 32.1562 28.5722 32.1562 26.5417C32.1562 24.5111 31.3495 22.5637 29.9137 21.1279C28.4779 19.6921 26.5305 18.8854 24.4999 18.8854Z" fill="black"/>
</svg>
