<svg width="43" height="41" viewBox="0 0 43 41" fill="none" xmlns="http://www.w3.org/2000/svg">
<g clip-path="url(#clip0_28_669)">
<path d="M6.29954 34.9935C4.24607 33.1025 2.60815 30.8404 1.48136 28.3393C0.354563 25.8382 -0.238541 23.1482 -0.263348 20.4262C-0.288155 17.7043 0.255831 15.0048 1.33687 12.4855C2.41791 9.96608 4.01435 7.67722 6.03304 5.75242C8.05174 3.82762 10.4523 2.30543 13.0945 1.27467C15.7368 0.243914 18.5679 -0.274771 21.4227 -0.251118C24.2774 -0.227465 27.0986 0.338053 29.7217 1.41244C32.3448 2.48682 34.7172 4.04856 36.7005 6.00652C40.6169 9.87286 42.784 15.0512 42.735 20.4262C42.686 25.8013 40.4249 30.9429 36.4386 34.7438C32.4524 38.5447 27.0599 40.7006 21.4227 40.7473C15.7854 40.794 10.3545 38.7278 6.29954 34.9935ZM24.51 20.5L30.5945 14.6985L27.563 11.808L21.5 17.6095L15.4155 11.808L12.384 14.6985L18.4685 20.5L12.384 26.3015L15.4155 29.192L21.5 23.3905L27.5845 29.192L30.616 26.3015L24.5315 20.5H24.51Z" fill="black"/>
</g>
<defs>
<clipPath id="clip0_28_669">
<rect width="43" height="41" fill="white"/>
</clipPath>
</defs>
</svg>
