<svg width="52" height="50" viewBox="0 0 52 50" fill="none" xmlns="http://www.w3.org/2000/svg">
<path d="M6.5 10.4167C6.5 9.3116 6.95655 8.25179 7.7692 7.47039C8.58186 6.68899 9.68406 6.25 10.8333 6.25H41.1667C42.3159 6.25 43.4181 6.68899 44.2308 7.47039C45.0435 8.25179 45.5 9.3116 45.5 10.4167V39.5833C45.5 40.6884 45.0435 41.7482 44.2308 42.5296C43.4181 43.311 42.3159 43.75 41.1667 43.75H10.8333C9.68406 43.75 8.58186 43.311 7.7692 42.5296C6.95655 41.7482 6.5 40.6884 6.5 39.5833V10.4167Z" stroke="black" stroke-width="2" stroke-linecap="round" stroke-linejoin="round"/>
<path d="M19.5 22.9167L26 29.1667L32.5 22.9167" stroke="black" stroke-width="2" stroke-linecap="round" stroke-linejoin="round"/>
</svg>
