<svg width="42" height="34" viewBox="0 0 42 34" fill="none" xmlns="http://www.w3.org/2000/svg">
<path d="M21 12.75C19.6076 12.75 18.2723 13.1978 17.2877 13.9948C16.3031 14.7918 15.75 15.8728 15.75 17C15.75 18.1272 16.3031 19.2082 17.2877 20.0052C18.2723 20.8022 19.6076 21.25 21 21.25C22.3924 21.25 23.7277 20.8022 24.7123 20.0052C25.6969 19.2082 26.25 18.1272 26.25 17C26.25 15.8728 25.6969 14.7918 24.7123 13.9948C23.7277 13.1978 22.3924 12.75 21 12.75ZM21 24.0833C18.6794 24.0833 16.4538 23.3371 14.8128 22.0087C13.1719 20.6803 12.25 18.8786 12.25 17C12.25 15.1214 13.1719 13.3197 14.8128 11.9913C16.4538 10.6629 18.6794 9.91667 21 9.91667C23.3206 9.91667 25.5462 10.6629 27.1872 11.9913C28.8281 13.3197 29.75 15.1214 29.75 17C29.75 18.8786 28.8281 20.6803 27.1872 22.0087C25.5462 23.3371 23.3206 24.0833 21 24.0833ZM21 6.375C12.25 6.375 4.7775 10.7808 1.75 17C4.7775 23.2192 12.25 27.625 21 27.625C29.75 27.625 37.2225 23.2192 40.25 17C37.2225 10.7808 29.75 6.375 21 6.375Z" fill="#797979"/>
</svg>
