<svg width="57" height="59" viewBox="0 0 57 59" fill="none" xmlns="http://www.w3.org/2000/svg">
<path d="M42.9649 41.5168L42.9671 41.5145C46.8006 37.5444 48.9512 32.1646 48.9512 26.5588C48.9512 20.9529 46.8006 15.5731 42.9671 11.603C41.0693 9.63737 38.815 8.07707 36.3325 7.01219C33.8499 5.94728 31.1883 5.39893 28.4999 5.39893C25.8116 5.39893 23.15 5.94728 20.6674 7.01219C18.1848 8.07707 15.9305 9.63735 14.0328 11.603C10.1993 15.5731 8.04871 20.9529 8.04871 26.5588C8.04871 32.1646 10.1993 37.5444 14.0327 41.5145L14.0354 41.5172L18.3702 45.9392L18.3727 45.9418L24.1953 51.7975L24.2033 51.8055L24.2116 51.8132L24.5907 52.1613L24.599 52.1689L24.6076 52.1762C27.0145 54.195 30.5424 54.0649 32.8066 51.7983L32.8078 51.7972L39.7475 44.8057L39.7501 44.8031L42.9649 41.5168ZM34.9053 33.1552C36.6005 31.4005 37.5499 29.0242 37.5499 26.5499C37.5499 24.0756 36.6005 21.6993 34.9053 19.9446C33.2095 18.1893 30.9058 17.1999 28.4999 17.1999C26.0941 17.1999 23.7904 18.1893 22.0946 19.9446C20.3994 21.6993 19.4499 24.0756 19.4499 26.5499C19.4499 29.0242 20.3994 31.4005 22.0946 33.1552C23.7904 34.9105 26.0941 35.8999 28.4999 35.8999C30.9058 35.8999 33.2095 34.9105 34.9053 33.1552ZM32.1709 22.7254C33.148 23.7369 33.6999 25.1123 33.6999 26.5499C33.6999 27.9875 33.148 29.363 32.1709 30.3744C31.1942 31.3853 29.8734 31.9499 28.4999 31.9499C27.1265 31.9499 25.8057 31.3853 24.829 30.3744C23.8518 29.363 23.2999 27.9875 23.2999 26.5499C23.2999 25.1123 23.8518 23.7369 24.829 22.7254C25.8057 21.7145 27.1265 21.1499 28.4999 21.1499C29.8734 21.1499 31.1942 21.7145 32.1709 22.7254ZM16.7614 14.3774C18.3043 12.7797 20.1353 11.5132 22.1492 10.6494C24.1631 9.78571 26.3211 9.34138 28.4999 9.34138C30.6788 9.34138 32.8368 9.78571 34.8507 10.6494C36.8646 11.5132 38.6956 12.7797 40.2385 14.3774C43.2692 17.5166 45.0146 21.7493 45.1055 26.1933C45.1964 30.6356 43.627 34.9398 40.7291 38.209L40.2358 38.7428L36.4787 42.5818L36.476 42.5845L30.1349 48.9656L29.8912 49.1803C29.4872 49.4914 28.9993 49.658 28.4999 49.658C28.001 49.658 27.5135 49.4917 27.1097 49.181L26.869 48.9667L18.39 40.4111L18.387 40.4081L16.764 38.7427L16.2704 38.2115C13.3727 34.9424 11.8035 30.6383 11.8943 26.1963C11.9853 21.7522 13.7307 17.5165 16.7614 14.3774Z" fill="#FFDE30" stroke="#FFDE30"/>
</svg>
