<svg width="39" height="37" viewBox="0 0 39 37" fill="none" xmlns="http://www.w3.org/2000/svg">
<path d="M7.92188 34.6875C9.05319 34.6875 10.1382 34.2611 10.9381 33.5022C11.7381 32.7433 12.1875 31.7139 12.1875 30.6406C12.1875 29.5673 11.7381 28.538 10.9381 27.7791C10.1382 27.0201 9.05319 26.5938 7.92188 26.5938C6.79056 26.5938 5.70558 27.0201 4.90562 27.7791C4.10566 28.538 3.65625 29.5673 3.65625 30.6406C3.65625 31.7139 4.10566 32.7433 4.90562 33.5022C5.70558 34.2611 6.79056 34.6875 7.92188 34.6875ZM31.0781 34.6875C32.2094 34.6875 33.2944 34.2611 34.0944 33.5022C34.8943 32.7433 35.3438 31.7139 35.3438 30.6406C35.3438 29.5673 34.8943 28.538 34.0944 27.7791C33.2944 27.0201 32.2094 26.5938 31.0781 26.5938C29.9468 26.5938 28.8618 27.0201 28.0619 27.7791C27.2619 28.538 26.8125 29.5673 26.8125 30.6406C26.8125 31.7139 27.2619 32.7433 28.0619 33.5022C28.8618 34.2611 29.9468 34.6875 31.0781 34.6875Z" fill="#433B6B"/>
<path d="M7.92188 32.375C8.40672 32.375 8.87171 32.1923 9.21455 31.867C9.55739 31.5418 9.75 31.1006 9.75 30.6406C9.75 30.1806 9.55739 29.7395 9.21455 29.4142C8.87171 29.089 8.40672 28.9062 7.92188 28.9062C7.43703 28.9062 6.97204 29.089 6.6292 29.4142C6.28636 29.7395 6.09375 30.1806 6.09375 30.6406C6.09375 31.1006 6.28636 31.5418 6.6292 31.867C6.97204 32.1923 7.43703 32.375 7.92188 32.375ZM31.0781 32.375C31.563 32.375 32.028 32.1923 32.3708 31.867C32.7136 31.5418 32.9062 31.1006 32.9062 30.6406C32.9062 30.1806 32.7136 29.7395 32.3708 29.4142C32.028 29.089 31.563 28.9062 31.0781 28.9062C30.5933 28.9062 30.1283 29.089 29.7854 29.4142C29.4426 29.7395 29.25 30.1806 29.25 30.6406C29.25 31.1006 29.4426 31.5418 29.7854 31.867C30.1283 32.1923 30.5933 32.375 31.0781 32.375Z" fill="#F3EEF8"/>
<path d="M14.625 12.7188C14.625 12.1054 14.3682 11.5172 13.9111 11.0836C13.454 10.6499 12.834 10.4062 12.1875 10.4062C11.541 10.4062 10.921 10.6499 10.4639 11.0836C10.0068 11.5172 9.75 12.1054 9.75 12.7188V28.3478C9.75 29.1092 10.0688 29.8395 10.6363 30.3779C11.2039 30.9163 11.9736 31.2188 12.7762 31.2188H24.6614C24.7838 31.2188 24.9051 31.1959 25.0182 31.1514C25.1313 31.107 25.2341 31.0418 25.3207 30.9597C25.4072 30.8775 25.4759 30.78 25.5228 30.6727C25.5696 30.5654 25.5938 30.4504 25.5938 30.3342V24.2812H32.9062C33.2295 24.2812 33.5395 24.1594 33.768 23.9426C33.9966 23.7258 34.125 23.4317 34.125 23.125V21.9688C34.125 21.0488 33.7398 20.1665 33.0541 19.516C32.3684 18.8655 31.4384 18.5 30.4688 18.5H17.6719C17.5103 18.5 17.3553 18.5609 17.241 18.6693C17.1267 18.7777 17.0625 18.9248 17.0625 19.0781V20.8125C17.0625 21.4258 17.3193 22.014 17.7764 22.4477C18.2335 22.8814 18.8535 23.125 19.5 23.125H20.1094C20.5942 23.125 21.0592 23.3077 21.4021 23.633C21.7449 23.9582 21.9375 24.3994 21.9375 24.8594C21.9375 25.3194 21.7449 25.7605 21.4021 26.0858C21.0592 26.411 20.5942 26.5938 20.1094 26.5938H15.4379C15.2223 26.5938 15.0155 26.5125 14.8631 26.3679C14.7106 26.2232 14.625 26.0271 14.625 25.8225V12.7188Z" fill="black"/>
<path d="M10.9688 11.5625C10.9688 11.2558 11.0972 10.9617 11.3257 10.7449C11.5543 10.5281 11.8643 10.4062 12.1875 10.4062H15.8438C16.167 10.4062 16.477 10.5281 16.7055 10.7449C16.9341 10.9617 17.0625 11.2558 17.0625 11.5625C17.0625 11.8692 16.9341 12.1633 16.7055 12.3801C16.477 12.5969 16.167 12.7188 15.8438 12.7188H12.1875C11.8643 12.7188 11.5543 12.5969 11.3257 12.3801C11.0972 12.1633 10.9688 11.8692 10.9688 11.5625Z" fill="#636363"/>
<path d="M9.75 16.1875H10.3594C10.521 16.1875 10.676 16.2484 10.7903 16.3568C10.9045 16.4652 10.9688 16.6123 10.9688 16.7656V20.2344C10.9688 20.3877 10.9045 20.5348 10.7903 20.6432C10.676 20.7516 10.521 20.8125 10.3594 20.8125H9.75V16.1875Z" fill="#F9C23C"/>
<path d="M27.4219 23.125C26.2906 23.125 25.2056 23.5514 24.4056 24.3103C23.6057 25.0692 23.1562 26.0986 23.1562 27.1719C23.1562 28.2452 23.6057 29.2745 24.4056 30.0334C25.2056 30.7924 26.2906 31.2188 27.4219 31.2188H35.3438C35.667 31.2188 35.977 31.0969 36.2055 30.8801C36.4341 30.6633 36.5625 30.3692 36.5625 30.0625V27.0724C36.5625 26.0255 36.1241 25.0215 35.3438 24.2812C34.5635 23.5409 33.5052 23.125 32.4017 23.125H27.4219ZM7.92188 24.2812C4.89328 24.2812 2.4375 26.6585 2.4375 29.5318C2.4375 29.822 2.68612 30.0625 2.99203 30.0625H12.8517C12.9993 30.0616 13.1406 30.0052 13.2445 29.9058C13.3484 29.8063 13.4066 29.6718 13.4062 29.5318C13.4062 26.6585 10.9505 24.2812 7.92188 24.2812Z" fill="black"/>
<path d="M17.0625 18.115C17.0625 17.0512 17.9717 16.1875 19.0942 16.1875H25.9996C27.1208 16.1875 28.0312 17.0501 28.0312 18.115C28.0312 18.3277 27.8484 18.5 27.6254 18.5H17.4683C17.3607 18.5 17.2575 18.4594 17.1814 18.3872C17.1053 18.315 17.0625 18.2171 17.0625 18.115Z" fill="#8C5543"/>
</svg>
