<svg width="16" height="20" viewBox="0 0 16 20" fill="none" xmlns="http://www.w3.org/2000/svg">
<path d="M2.20801 14.7632L1.24889 17.9172C1.22125 18.0081 1.21448 18.1076 1.22943 18.2035C1.24438 18.2994 1.28038 18.3874 1.33298 18.4566C1.38558 18.5258 1.45245 18.5732 1.52532 18.5928C1.59819 18.6125 1.67384 18.6036 1.74289 18.5672L4.14069 17.3052C4.52295 17.1042 4.87019 16.8031 5.16137 16.4202L13.4598 5.50023C13.7622 5.1024 13.932 4.56284 13.932 4.00023C13.932 3.43762 13.7622 2.89805 13.4598 2.50023C13.1575 2.1024 12.7474 1.87891 12.3198 1.87891C11.8922 1.87891 11.4822 2.1024 11.1798 2.50023L2.88061 13.4202C2.58962 13.8034 2.36079 14.2603 2.20801 14.7632Z" fill="#FFDE30"/>
</svg>
