<svg width="37" height="37" viewBox="0 0 37 37" fill="none" xmlns="http://www.w3.org/2000/svg">
<path d="M32.3749 32.3748L25.6795 25.6794M25.6795 25.6794C26.8248 24.5341 27.7333 23.1744 28.3531 21.678C28.9729 20.1817 29.2919 18.5778 29.2919 16.9582C29.2919 15.3385 28.9729 13.7347 28.3531 12.2383C27.7333 10.7419 26.8248 9.38224 25.6795 8.23695C24.5342 7.09167 23.1746 6.18318 21.6782 5.56336C20.1818 4.94353 18.578 4.62451 16.9583 4.62451C15.3386 4.62451 13.7348 4.94353 12.2384 5.56336C10.742 6.18318 9.38236 7.09167 8.23708 8.23695C5.92407 10.55 4.62463 13.6871 4.62463 16.9582C4.62463 20.2293 5.92407 23.3664 8.23708 25.6794C10.5501 27.9924 13.6872 29.2918 16.9583 29.2918C20.2294 29.2918 23.3665 27.9924 25.6795 25.6794ZM16.9583 12.3332V21.5832M12.3333 16.9582H21.5833" stroke="#FFDE30" stroke-width="2" stroke-linecap="round" stroke-linejoin="round"/>
</svg>
