<svg width="32" height="32" viewBox="0 0 32 32" fill="none" xmlns="http://www.w3.org/2000/svg">
<path d="M10.6666 2.6665H21.3333C23.455 2.6665 25.4899 3.50936 26.9901 5.00965C28.4904 6.50994 29.3333 8.54477 29.3333 10.6665V21.3332C29.3333 23.4549 28.4904 25.4897 26.9901 26.99C25.4899 28.4903 23.455 29.3332 21.3333 29.3332H10.6666C8.54489 29.3332 6.51006 28.4903 5.00977 26.99C3.50948 25.4897 2.66663 23.4549 2.66663 21.3332L2.66663 10.6665C2.66663 8.54477 3.50948 6.50994 5.00977 5.00965C6.51006 3.50936 8.54489 2.6665 10.6666 2.6665ZM10.6666 5.33317C9.25214 5.33317 7.89558 5.89507 6.89539 6.89527C5.8952 7.89546 5.33329 9.25202 5.33329 10.6665V21.3332C5.33329 22.7477 5.8952 24.1042 6.89539 25.1044C7.89558 26.1046 9.25214 26.6665 10.6666 26.6665H21.3333C22.7478 26.6665 24.1043 26.1046 25.1045 25.1044C26.1047 24.1042 26.6666 22.7477 26.6666 21.3332V10.6665C26.6666 9.25202 26.1047 7.89546 25.1045 6.89527C24.1043 5.89507 22.7478 5.33317 21.3333 5.33317H10.6666ZM18.6666 14.6665H22.6666C23.0202 14.6665 23.3594 14.807 23.6094 15.057C23.8595 15.3071 24 15.6462 24 15.9998C24 16.3535 23.8595 16.6926 23.6094 16.9426C23.3594 17.1927 23.0202 17.3332 22.6666 17.3332H18.6666C18.313 17.3332 17.9739 17.1927 17.7238 16.9426C17.4738 16.6926 17.3333 16.3535 17.3333 15.9998C17.3333 15.6462 17.4738 15.3071 17.7238 15.057C17.9739 14.807 18.313 14.6665 18.6666 14.6665ZM16 19.9998H22.6666C23.0202 19.9998 23.3594 20.1403 23.6094 20.3904C23.8595 20.6404 24 20.9795 24 21.3332C24 21.6868 23.8595 22.0259 23.6094 22.276C23.3594 22.526 23.0202 22.6665 22.6666 22.6665H16C15.6463 22.6665 15.3072 22.526 15.0571 22.276C14.8071 22.0259 14.6666 21.6868 14.6666 21.3332C14.6666 20.9795 14.8071 20.6404 15.0571 20.3904C15.3072 20.1403 15.6463 19.9998 16 19.9998ZM16 9.33317H22.6666C23.0202 9.33317 23.3594 9.47365 23.6094 9.72369C23.8595 9.97374 24 10.3129 24 10.6665C24 11.0201 23.8595 11.3593 23.6094 11.6093C23.3594 11.8594 23.0202 11.9998 22.6666 11.9998H16C15.6463 11.9998 15.3072 11.8594 15.0571 11.6093C14.8071 11.3593 14.6666 11.0201 14.6666 10.6665C14.6666 10.3129 14.8071 9.97374 15.0571 9.72369C15.3072 9.47365 15.6463 9.33317 16 9.33317ZM10.4373 16.3238L13.2666 13.4932C13.3905 13.3694 13.5376 13.2712 13.6994 13.2042C13.8612 13.1373 14.0346 13.1028 14.2098 13.1029C14.3849 13.103 14.5583 13.1375 14.7201 13.2046C14.8819 13.2717 15.0288 13.37 15.1526 13.4938C15.2764 13.6177 15.3746 13.7648 15.4416 13.9266C15.5085 14.0884 15.543 14.2618 15.5429 14.437C15.5428 14.6121 15.5083 14.7855 15.4412 14.9473C15.3741 15.1091 15.2758 15.256 15.152 15.3798L11.3813 19.1505C11.2575 19.2745 11.1104 19.3728 10.9485 19.4399C10.7867 19.507 10.6132 19.5416 10.438 19.5416C10.2627 19.5416 10.0892 19.507 9.92737 19.4399C9.76551 19.3728 9.61846 19.2745 9.49463 19.1505L7.60929 17.2665C7.36642 17.015 7.23202 16.6782 7.23506 16.3286C7.2381 15.979 7.37832 15.6446 7.62553 15.3974C7.87275 15.1502 8.20716 15.01 8.55676 15.0069C8.90635 15.0039 9.24316 15.1383 9.49463 15.3812L10.4373 16.3238Z" fill="black"/>
</svg>
