<svg width="430" height="440" viewBox="0 0 430 440" fill="none" xmlns="http://www.w3.org/2000/svg">
<g clip-path="url(#clip0_55_548)">
<path d="M417.376 439.415L416.786 439.167C416.656 439.112 403.755 433.56 397.712 420.971C391.668 408.381 394.627 393.223 394.658 393.072L394.797 392.382L395.387 392.63C395.516 392.685 408.417 398.237 414.461 410.826C420.505 423.415 417.546 438.573 417.515 438.725L417.376 439.415ZM398.68 420.385C403.789 431.029 413.984 436.485 416.567 437.731C417.058 434.621 418.598 422.046 413.493 411.412C408.389 400.779 398.19 395.315 395.606 394.066C395.114 397.178 393.575 409.752 398.68 420.385Z" fill="#3F3D56"/>
<path d="M402.33 416.555C413.191 423.894 417.374 438.473 417.374 438.473C417.374 438.473 403.948 441.151 393.087 433.812C382.226 426.472 378.043 411.894 378.043 411.894C378.043 411.894 391.469 409.215 402.33 416.555Z" fill="#FFDE30"/>
<path d="M227.477 235.809C228.004 234.895 228.696 234.116 229.509 233.523C230.323 232.93 231.238 232.537 232.196 232.369C233.154 232.201 234.133 232.263 235.068 232.55C236.003 232.837 236.874 233.342 237.623 234.033C237.86 234.253 238.082 234.491 238.288 234.746L265.336 230.323L266.841 207.478C266.957 205.725 267.687 204.096 268.872 202.948C270.057 201.8 271.599 201.228 273.159 201.357C274.72 201.487 276.17 202.307 277.192 203.638C278.214 204.969 278.723 206.701 278.608 208.454C278.606 208.495 278.603 208.535 278.599 208.576L275.963 240.632L275.95 240.704C275.607 241.936 274.919 243.011 273.989 243.77C273.059 244.528 271.936 244.93 270.786 244.914L238.972 244.297C238.849 244.509 238.716 244.714 238.573 244.91C237.958 245.751 237.191 246.437 236.323 246.922C235.455 247.408 234.506 247.682 233.537 247.726C232.568 247.771 231.602 247.585 230.702 247.181C229.802 246.777 228.988 246.164 228.313 245.381C228.176 245.224 228.046 245.061 227.924 244.893C227.007 243.625 226.47 242.064 226.39 240.432C226.31 238.801 226.69 237.183 227.477 235.809Z" fill="#FFB7B7"/>
<path d="M282.008 430.595L274.294 430.595L270.624 397.173L282.009 397.173L282.008 430.595Z" fill="#FFB7B7"/>
<path d="M283.976 438.995L259.101 438.994V438.64C259.101 435.756 260.122 432.99 261.937 430.951C263.753 428.911 266.215 427.766 268.783 427.766H268.784L283.976 427.766L283.976 438.995Z" fill="#2F2E41"/>
<path d="M335.914 422.739L328.612 425.536L315.532 395.235L326.309 391.107L335.914 422.739Z" fill="#FFB7B7"/>
<path d="M340.19 429.975L316.647 438.995L316.546 438.66C315.717 435.93 315.887 432.943 317.02 430.354C318.152 427.766 320.153 425.788 322.583 424.857L322.584 424.857L336.963 419.348L340.19 429.975Z" fill="#2F2E41"/>
<path d="M290.503 138.366C290.503 138.366 282.825 135.518 277.889 146.911C272.953 158.304 265.274 170.836 265.274 170.836L269.662 171.976C269.662 171.976 270.759 164.001 273.501 162.861L272.404 173.115C272.404 173.115 305.311 185.078 320.119 171.976L319.571 167.988C319.571 167.988 321.764 168.558 321.764 171.976L323.41 170.267C323.41 170.267 321.764 166.849 316.828 162.292C313.589 159.301 312.475 153.61 312.093 150.052C311.789 147.04 310.639 144.215 308.81 141.986C305.529 138.038 299.552 133.841 290.503 138.366Z" fill="#2F2E41"/>
<path d="M293.333 178.172C301.078 178.172 307.357 171.119 307.357 162.42C307.357 153.72 301.078 146.668 293.333 146.668C285.588 146.668 279.309 153.72 279.309 162.42C279.309 171.119 285.588 178.172 293.333 178.172Z" fill="#FFB7B7"/>
<path d="M274.635 191.143L272.085 190.188C272.085 190.188 266.985 192.575 266.985 196.871C266.985 201.167 266.135 218.351 266.135 218.351L277.609 219.783L274.635 191.143Z" fill="#CBCBCB"/>
<path d="M320.271 285.033C319.214 283.702 318.617 281.989 318.589 280.205C318.561 278.421 319.104 276.686 320.12 275.314L312.962 207.98C312.892 206.392 313.385 204.838 314.334 203.659C315.283 202.479 316.61 201.771 318.024 201.689C319.437 201.607 320.822 202.158 321.874 203.222C322.926 204.286 323.559 205.775 323.634 207.362C323.635 207.384 323.636 207.406 323.637 207.428L330.041 274.833C330.273 275.095 330.487 275.376 330.681 275.675C331.194 276.473 331.563 277.376 331.766 278.334C331.968 279.292 332.001 280.285 331.862 281.257C331.723 282.23 331.415 283.161 330.955 284C330.496 284.838 329.894 285.566 329.183 286.143C329.11 286.203 329.035 286.261 328.959 286.317C328.137 286.929 327.204 287.328 326.228 287.486C325.252 287.645 324.257 287.559 323.315 287.234C322.137 286.833 321.083 286.071 320.271 285.033Z" fill="#FFB7B7"/>
<path d="M313.716 218.351L325.19 216.919C325.19 216.919 324.34 199.735 324.34 195.439C324.34 191.143 319.24 188.756 319.24 188.756L316.69 189.711L313.716 218.351Z" fill="#CBCBCB"/>
<path d="M276.335 242.193C276.335 242.193 266.56 262.266 266.56 286.61C266.56 310.954 265.71 422.65 265.71 422.65C265.71 422.65 278.459 429.333 286.109 421.218L292.908 297.588L319.681 418.831C319.681 418.831 332.43 421.695 338.379 416.922L326.905 332.434C326.905 332.434 322.231 253.196 309.482 247.468C296.733 241.74 276.335 242.193 276.335 242.193Z" fill="#2F2E41"/>
<path d="M278.179 162.52C283.144 158.484 287.162 153.836 289.821 148.306C289.821 148.306 298.932 159.677 304.499 160.245C310.067 160.814 305.006 146.601 305.006 146.601L294.882 143.758L285.265 144.895L277.673 150.58L278.179 162.52Z" fill="#2F2E41"/>
<path d="M307.357 185.892C307.357 185.892 307.762 185.648 283.56 186.638L273.431 189.771L272.085 190.188C272.085 190.188 273.36 218.828 276.759 224.079C280.159 229.329 279.309 232.193 278.459 232.671C277.609 233.148 275.485 232.193 276.759 234.58C278.034 236.967 279.734 235.535 278.034 236.967C276.334 238.399 275.485 243.649 275.485 243.649L312.881 249.377C312.881 249.377 314.156 230.761 317.556 221.215C320.956 211.668 321.806 207.849 321.806 207.849L319.256 188.756L307.357 185.892Z" fill="#CBCBCB"/>
<path d="M236.258 104.472H234.107V38.299C234.107 28.1415 230.515 18.4 224.12 11.2175C217.726 4.03509 209.053 1.63735e-05 200.01 1.44004e-10L75.1952 1.44008e-10C66.1521 -2.78347e-05 57.4794 4.035 51.0849 11.2174C44.6904 18.3999 41.098 28.1413 41.098 38.2989V401.328C41.098 411.485 44.6904 421.227 51.0848 428.409C57.4792 435.592 66.152 439.627 75.1951 439.627H200.01C204.488 439.627 208.921 438.636 213.058 436.712C217.195 434.787 220.954 431.966 224.12 428.409C227.286 424.853 229.798 420.631 231.512 415.984C233.225 411.338 234.107 406.358 234.107 401.328V151.575H236.258L236.258 104.472Z" fill="#3F3D56"/>
<path d="M226.85 38.5681V401.063C226.853 404.816 226.198 408.533 224.922 412.001C223.647 415.469 221.775 418.621 219.415 421.277C217.054 423.933 214.251 426.041 211.166 427.48C208.08 428.92 204.773 429.662 201.432 429.665H75.972C69.2232 429.671 62.7489 426.665 57.9735 421.308C53.198 415.952 50.5125 408.684 50.5077 401.104V38.5681C50.5054 34.8146 51.1612 31.0974 52.4378 27.6287C53.7145 24.1599 55.5869 21.0076 57.9481 18.3516C60.3093 15.6956 63.1132 13.5881 66.1996 12.1492C69.286 10.7104 72.5944 9.96848 75.9361 9.96583H91.1857C90.4365 12.0291 90.1505 14.2676 90.353 16.4842C90.5555 18.7008 91.2402 20.8275 92.3469 22.6768C93.4536 24.5261 94.9482 26.0413 96.6991 27.0889C98.4499 28.1365 100.403 28.6844 102.387 28.6842H173.894C175.877 28.6844 177.831 28.1365 179.582 27.0889C181.333 26.0413 182.827 24.5261 183.934 22.6768C185.041 20.8275 185.725 18.7008 185.928 16.4842C186.13 14.2676 185.844 12.0291 185.095 9.96583H201.386C208.134 9.95904 214.607 12.9633 219.383 18.3176C224.158 23.6719 226.844 30.9378 226.85 38.5168L226.85 38.5681Z" fill="white"/>
<path d="M226.85 92.1981V79.8509H210.213V11.7314C207.387 10.5593 204.398 9.96136 201.386 9.96572H199.22V79.8509H141.51V28.6841H130.517V79.8509H82.1497V9.96578H75.972C74.3562 9.96295 72.7438 10.1345 71.1572 10.4782V79.8509H50.5078V92.1981H71.1572V120.757L50.508 134.148V148.409L71.1572 135.019V219.992H50.5078V232.339H71.1572V355.193H50.5078V367.54H71.1572V429.153C72.7438 429.497 74.3562 429.668 75.972 429.665H82.1497V367.54H130.517V429.665H141.51V367.54H199.22V429.665H201.386C204.398 429.67 207.387 429.072 210.213 427.9V367.541H226.85V355.193H210.213V301.483H226.702V289.136H210.213V232.339H226.85V219.992H210.213V144.674H226.85V132.326H210.213V92.1981L226.85 92.1981ZM115.199 92.1981L82.15 113.633L82.1497 92.1981H115.199ZM82.1497 127.888L130.517 96.52V219.992H82.1497V127.888ZM82.1497 355.193V232.339H130.517V355.193H82.1497ZM199.22 355.193H141.51V301.483H199.22V355.193ZM199.22 289.136H141.51V232.339H199.22V289.136ZM199.22 219.992H141.51V144.674H199.22V219.992ZM199.22 132.326H141.51V92.1981H199.22V132.326Z" fill="#E5E5E5"/>
<path d="M236.046 132.555C236.046 171.765 172.838 259.114 172.838 259.114C172.838 259.114 109.631 171.765 109.631 132.555C109.631 113.726 116.29 95.6673 128.144 82.3529C139.998 69.0385 156.075 61.5586 172.838 61.5586C189.602 61.5586 205.679 69.0385 217.533 82.3529C229.386 95.6673 236.046 113.726 236.046 132.555Z" fill="#FFDE30"/>
<path d="M210.214 129.468C210.214 137.771 208.022 145.888 203.915 152.791C199.808 159.695 193.971 165.076 187.142 168.253C180.312 171.43 172.798 172.262 165.548 170.642C158.298 169.022 151.638 165.024 146.411 159.153C141.184 153.282 137.625 145.802 136.183 137.658C134.74 129.515 135.481 121.074 138.309 113.403C141.138 105.732 145.929 99.1755 152.075 94.5627C158.221 89.9498 165.447 87.4877 172.839 87.4877C177.745 87.4851 182.603 88.568 187.137 90.6744C191.67 92.7808 195.789 95.8695 199.26 99.7642C202.73 103.659 205.484 108.283 207.364 113.373C209.243 118.463 210.212 123.919 210.214 129.43V129.468Z" fill="white"/>
<path d="M172.709 146.04C180.399 146.04 186.633 139.038 186.633 130.4C186.633 121.763 180.399 114.76 172.709 114.76C165.019 114.76 158.785 121.763 158.785 130.4C158.785 139.038 165.019 146.04 172.709 146.04Z" fill="#FFDE30"/>
<path d="M192.917 166.121C186.915 170.408 179.949 172.684 172.835 172.683C165.722 172.682 158.757 170.404 152.756 166.115C154.004 161.214 156.639 156.903 160.262 153.835C163.886 150.766 168.3 149.107 172.838 149.108C177.376 149.108 181.79 150.769 185.413 153.839C189.036 156.908 191.67 161.22 192.917 166.121Z" fill="#FFDE30"/>
<path d="M172.838 310.354C182.248 310.354 189.877 301.786 189.877 291.216C189.877 280.647 182.248 272.078 172.838 272.078C163.428 272.078 155.8 280.647 155.8 291.216C155.8 301.786 163.428 310.354 172.838 310.354Z" fill="#FFDE30"/>
<path d="M436.45 440H-5.45037C-5.59614 440 -5.73594 439.935 -5.83902 439.819C-5.94209 439.703 -6 439.546 -6 439.383C-6 439.219 -5.94209 439.062 -5.83902 438.946C-5.73594 438.83 -5.59614 438.765 -5.45037 438.765H436.45C436.596 438.765 436.736 438.83 436.839 438.946C436.942 439.062 437 439.219 437 439.383C437 439.546 436.942 439.703 436.839 439.819C436.736 439.935 436.596 440 436.45 440Z" fill="#CBCBCB"/>
</g>
<defs>
<clipPath id="clip0_55_548">
<rect width="443" height="440" fill="white" transform="translate(-6)"/>
</clipPath>
</defs>
</svg>
