<svg width="430" height="294" viewBox="0 0 430 294" fill="none" xmlns="http://www.w3.org/2000/svg">
<g clip-path="url(#clip0_53_362)">
<path d="M44.1223 207.333C42.209 207.563 40.1202 207.908 37.8981 208.415C28.4832 210.557 28.2834 217.694 28.3681 219.329L28.3015 219.282C27.357 220.978 26.7636 222.695 26.4004 224.31L25.9705 202.434C26.249 201.785 26.5033 201.048 26.7152 200.298C27.4175 202.724 28.574 205.009 29.573 204.86C30.8687 204.664 31.4318 200.406 31.1896 197.385C32.8364 199.751 35.6095 202.285 36.6569 201.501C37.4925 200.879 36.996 198.311 36.0878 195.973C37.9889 197.25 40.096 198.088 40.7499 197.277C41.6399 196.169 39.5026 192.391 37.5348 190.283C40.1686 190.56 43.5229 190.087 43.7469 188.748C43.9286 187.647 41.9305 186.255 39.7932 185.356C41.9366 184.727 43.9467 183.626 43.8801 182.538C43.8014 181.247 40.8225 180.375 38.2493 180.247C40.1868 178.557 41.9668 176.212 41.4219 175.158C40.9194 174.185 38.5944 174.563 36.445 175.421C37.7165 173.394 38.6126 171.103 37.9284 170.319C37.0808 169.346 34.0716 171.029 32.013 172.887C32.4126 169.988 32.2128 166.332 31.0443 166.001C30.0695 165.723 28.689 167.852 27.7445 170.17C27.3267 167.737 26.4791 165.426 25.5043 165.426C24.1117 165.426 22.9855 170.109 22.9855 173.164C22.9855 173.34 22.9855 173.502 22.9977 173.658C22.8584 173.475 22.6949 173.286 22.5133 173.09C20.5516 170.961 16.7553 168.602 15.7805 169.718C15.1024 170.501 15.9924 172.786 17.2639 174.82C15.1145 173.962 12.7835 173.583 12.287 174.556C11.6149 175.861 14.4909 179.125 16.828 180.706C16.6887 180.686 16.5374 180.672 16.3799 180.659C13.6493 180.449 9.38682 181.389 9.28994 182.936C9.22334 184.025 11.2274 185.126 13.3768 185.755C11.2395 186.653 9.24756 188.046 9.42315 189.147C9.64111 190.485 12.9954 190.958 15.6352 190.681C13.6675 192.79 11.5302 196.568 12.4202 197.676C13.0741 198.487 15.1811 197.649 17.0823 196.372C16.168 198.71 15.6776 201.278 16.5131 201.9C17.6151 202.724 20.6485 199.852 22.2408 197.385C22.0773 200.406 22.7252 204.556 24.0088 204.718C24.5476 204.786 25.1168 204.144 25.6314 203.164L24.1783 226.675C23.8393 229.412 26.0129 231.203 26.2066 232.325L26.5215 248.247C26.1642 247.112 25.692 245.95 25.0441 244.801L24.9775 244.848C25.0623 243.212 24.8625 236.076 15.4475 233.933C13.2255 233.427 11.1366 233.082 9.22334 232.852C6.96496 232.582 6.08098 236.035 8.1214 237.15C11.0761 238.766 13.8551 240.8 15.3083 243.206C19.0137 249.362 24.1299 245.808 24.8625 245.253C25.6738 246.767 26.2066 248.288 26.5457 249.734L26.7152 258.189C26.6728 258.391 26.6486 258.499 26.6425 258.506L26.7213 258.533L27.1269 278.997L30.8687 278.963L29.5306 258.047C29.7546 256.918 30.4449 253.073 29.5306 249.085L28.1925 232.649L26.4488 226.189C26.7031 224.188 27.2904 221.945 28.4892 219.721C29.2158 220.275 34.338 223.837 38.0434 217.673C39.4905 215.267 42.2756 213.233 45.2303 211.618C47.2707 210.503 46.3928 207.05 44.1284 207.32L44.1223 207.333ZM27.03 255.749L26.9574 252.167C27.0966 253.519 27.0906 254.742 27.03 255.749Z" fill="#F2F2F2"/>
<path d="M-4 279.984C-4 280.43 -3.6791 280.788 -3.2795 280.788H438.279C438.679 280.788 439 280.43 439 279.984C439 279.538 438.679 279.179 438.279 279.179H-3.2795C-3.6791 279.179 -4 279.538 -4 279.984Z" fill="#3F3D56"/>
<path d="M263.966 280.693C282.023 280.693 296.661 264.354 296.661 244.199C296.661 224.044 282.023 207.705 263.966 207.705C245.909 207.705 231.271 224.044 231.271 244.199C231.271 264.354 245.909 280.693 263.966 280.693Z" fill="#3F3D56"/>
<path d="M263.966 268.529C276.004 268.529 285.763 257.636 285.763 244.199C285.763 230.762 276.004 219.87 263.966 219.87C251.928 219.87 242.17 230.762 242.17 244.199C242.17 257.636 251.928 268.529 263.966 268.529Z" fill="#FF6584"/>
<path d="M263.966 258.053C270.821 258.053 276.378 251.851 276.378 244.199C276.378 236.548 270.821 230.345 263.966 230.345C257.111 230.345 251.554 236.548 251.554 244.199C251.554 251.851 257.111 258.053 263.966 258.053Z" fill="#3F3D56"/>
<path d="M75.0615 280.693C93.1185 280.693 107.757 264.354 107.757 244.199C107.757 224.044 93.1185 207.705 75.0615 207.705C57.0045 207.705 42.3665 224.044 42.3665 244.199C42.3665 264.354 57.0045 280.693 75.0615 280.693Z" fill="#3F3D56"/>
<path d="M75.0615 268.529C87.0995 268.529 96.8582 257.636 96.8582 244.199C96.8582 230.762 87.0995 219.87 75.0615 219.87C63.0235 219.87 53.2648 230.762 53.2648 244.199C53.2648 257.636 63.0235 268.529 75.0615 268.529Z" fill="#FF6584"/>
<path d="M308.692 226.844C304.436 214.862 289.553 178.253 263.046 166.136C262.84 166.041 262.628 165.98 262.41 165.947L177.397 152.356C175.998 152.133 174.691 153.201 174.467 154.762L172.977 165.034C172.874 165.737 173.007 166.46 173.353 167.062C177.67 174.536 205.339 225.283 161.031 225.283C116.724 225.283 104.511 189.891 102.574 183.639C102.392 183.051 102.386 182.416 102.55 181.821L115.979 134.345C116.215 133.501 116.088 132.636 115.7 131.946L121.604 119.707L132.417 126.54L138.018 126.614L157.132 137.765L161.025 130.669L121.604 108.718C121.604 108.718 121.67 103.636 108.955 99.5814L88.9751 89.4442L86.5532 92.8233L92.6079 98.2298L93.2133 102.285L97.4516 103.636L105.928 121.883L103.506 127.114L106.449 128.716L105.607 128.5C104.39 128.189 103.149 128.892 102.653 130.169L89.296 164.338C89.0901 164.858 88.7511 165.304 88.3212 165.615L83.5622 169.042C83.1202 169.359 82.7691 169.826 82.5693 170.373L77.1322 185.086C76.9627 185.545 76.9142 186.025 76.9566 186.491C70.1815 187.924 50.2678 194.114 39.327 218.532L52.0418 230.021C52.0418 230.021 71.9737 215.626 104.911 230.615C110.639 240.563 118.988 248.815 131.049 249.592C162.842 251.647 215.517 253.674 221.572 245.564C226.004 239.624 229.086 235.92 230.424 234.359C230.896 233.812 231.538 233.494 232.216 233.467L306.355 230.825C308.153 230.764 309.346 228.723 308.686 226.858L308.692 226.844Z" fill="#FF6584"/>
<path d="M104.124 120.525C109.474 120.525 113.811 115.684 113.811 109.712C113.811 103.74 109.474 98.8989 104.124 98.8989C98.7736 98.8989 94.4364 103.74 94.4364 109.712C94.4364 115.684 98.7736 120.525 104.124 120.525Z" fill="#3F3D56"/>
<path d="M259.262 166.183C259.147 166.183 259.032 166.183 258.917 166.176L177.918 162.676C174.333 162.52 171.264 159.972 170.095 156.188L168.987 152.586C168.085 149.653 168.479 146.503 170.065 143.955C171.657 141.408 174.164 139.907 176.943 139.833L260.63 137.684C263.222 137.616 265.716 138.853 267.405 141.083C269.095 143.313 269.785 146.233 269.294 149.105L267.714 158.35C266.933 162.939 263.403 166.176 259.256 166.176L259.262 166.183Z" fill="#3F3D56"/>
<path d="M75.0615 258.053C81.9165 258.053 87.4735 251.851 87.4735 244.199C87.4735 236.548 81.9165 230.345 75.0615 230.345C68.2066 230.345 62.6495 236.548 62.6495 244.199C62.6495 251.851 68.2066 258.053 75.0615 258.053Z" fill="#3F3D56"/>
<path d="M291.806 204.759C289.868 204.759 288.021 203.603 287.035 201.609L280.901 189.215C279.926 187.248 279.987 184.944 281.053 183.045C282.118 181.139 283.959 180.071 285.957 180.193L297.091 180.828C299.162 180.95 301.027 182.403 301.838 184.538L305.09 193.121C305.683 194.696 305.671 196.412 305.047 197.973C304.423 199.528 303.285 200.697 301.844 201.251L293.598 204.427C293.01 204.657 292.405 204.765 291.812 204.765L291.806 204.759Z" fill="#3F3D56"/>
<path d="M151.005 287.134C150.914 287.134 150.817 287.134 150.726 287.113L148.256 286.809C147.451 286.708 146.748 286.201 146.337 285.417C145.925 284.633 145.871 283.707 146.185 282.869L159.045 248.781C159.397 247.849 160.178 247.186 161.08 247.058C161.958 246.936 162.811 247.321 163.375 248.085C163.932 248.849 164.101 249.863 163.817 250.795L153.433 285.187C153.082 286.35 152.089 287.127 151.011 287.127L151.005 287.134Z" fill="#3F3D56"/>
<path d="M217.769 49.2534C217.769 49.2534 213.065 38.7512 214.003 29.3033L198.346 38.3593L198.952 55.552L217.769 49.2534Z" fill="#A0616A"/>
<path d="M208.052 43.2117C215.853 43.2117 222.177 36.1526 222.177 27.4449C222.177 18.7371 215.853 11.6781 208.052 11.6781C200.25 11.6781 193.926 18.7371 193.926 27.4449C193.926 36.1526 200.25 43.2117 208.052 43.2117Z" fill="#A0616A"/>
<path d="M222.48 275.01H213.858L209.759 237.901H222.48V275.01Z" fill="#A0616A"/>
<path d="M192.951 274.787C192.685 275.293 192.54 276.922 192.54 277.503C192.54 279.308 193.848 280.768 195.464 280.768H222.153C223.255 280.768 224.151 279.767 224.151 278.537V277.294C224.151 277.294 225.471 273.563 222.752 268.975C222.752 268.975 219.374 272.57 214.324 266.94L212.835 263.933L202.058 272.732L196.082 273.55C194.774 273.732 193.617 273.523 192.945 274.787H192.951Z" fill="#2F2E41"/>
<path d="M197.069 49.2534L217.769 46.1041L233.766 54.5045L234.704 119.613C234.704 119.613 195.361 124.864 189.161 118.038C182.961 111.212 187.666 56.6063 187.666 56.6063L197.075 49.2534H197.069Z" fill="#E6E6E6"/>
<path d="M204.516 31.4592H200.72C200.72 31.4592 197.426 26.9313 197.868 29.6886C198.31 32.4459 196.536 35.4128 196.536 35.4128L193.878 34.4261C193.878 34.4261 188.562 9.46819 204.516 8.09629C220.47 6.72438 224.018 20.5786 224.018 20.5786C224.018 20.5786 223.134 27.5057 221.36 25.5256C219.586 23.5454 209.838 22.5587 209.838 22.5587L204.522 31.466L204.516 31.4592Z" fill="#2F2E41"/>
<path d="M194.471 266.67L186.182 269.279L173.201 234.819L185.444 230.96L194.471 266.67Z" fill="#A0616A"/>
<path d="M166.002 275.415C165.869 275.983 166.129 277.591 166.269 278.159C166.705 279.896 168.321 280.903 169.877 280.416L195.561 272.32C196.621 271.989 197.238 270.752 196.941 269.569L196.639 268.373C196.639 268.373 197.002 264.386 193.266 260.79C193.266 260.79 190.893 265.278 184.663 261.385L182.495 258.939L174.267 270.671L168.721 273.273C167.51 273.84 166.341 273.996 166.002 275.415Z" fill="#2F2E41"/>
<path d="M231.877 113.314L234.698 122.843V155.586L226.228 254.417H209.687L207.822 183.869L209.293 149.024L177.742 202.305L191.607 240.361L176.344 251.721C176.344 251.721 153.518 193.662 156.932 188.032C160.347 182.409 190.935 115.997 190.935 115.997C190.935 115.997 231.865 114.368 231.865 113.321L231.877 113.314Z" fill="#2F2E41"/>
<path d="M240.347 75.5089L244.894 83.8214C244.894 83.8214 251.324 112.03 244.894 112.145C238.464 112.26 225.483 97.7702 225.483 97.7702L227.178 90.2078L231.883 92.3096L230.944 75.5089H240.353H240.347Z" fill="#A0616A"/>
<path d="M226.234 54.3761C226.234 54.3761 241.286 51.416 242.696 62.4116C244.107 73.4071 244.894 83.8282 244.894 83.8282L228.583 85.3352L226.234 54.3761Z" fill="#E6E6E6"/>
<path d="M229.503 96.8497C230.865 94.7156 228.871 90.5227 225.05 87.4848C221.229 84.4469 217.027 83.7143 215.665 85.8484C214.303 87.9826 216.297 92.1754 220.119 95.2134C223.94 98.2513 228.142 98.9839 229.503 96.8497Z" fill="#A0616A"/>
<path d="M353.515 207.333C351.601 207.563 349.512 207.908 347.29 208.415C337.875 210.557 337.676 217.694 337.76 219.329L337.694 219.282C336.749 220.978 336.156 222.695 335.793 224.31L335.363 202.434C335.641 201.785 335.896 201.048 336.107 200.298C336.81 202.724 337.966 205.009 338.965 204.86C340.261 204.664 340.824 200.406 340.582 197.385C342.229 199.751 345.002 202.285 346.049 201.501C346.885 200.879 346.388 198.311 345.48 195.973C347.381 197.25 349.488 198.088 350.142 197.277C351.032 196.169 348.895 192.391 346.927 190.283C349.561 190.56 352.915 190.087 353.139 188.748C353.321 187.647 351.323 186.255 349.186 185.356C351.329 184.727 353.339 183.626 353.272 182.538C353.194 181.247 350.215 180.375 347.642 180.247C349.579 178.557 351.359 176.212 350.814 175.158C350.312 174.185 347.987 174.563 345.837 175.421C347.109 173.394 348.005 171.103 347.321 170.319C346.473 169.346 343.464 171.029 341.405 172.887C341.805 169.988 341.605 166.332 340.437 166.001C339.462 165.723 338.081 167.852 337.137 170.17C336.719 167.737 335.871 165.426 334.897 165.426C333.504 165.426 332.378 170.109 332.378 173.164C332.378 173.34 332.378 173.502 332.39 173.658C332.251 173.475 332.087 173.286 331.906 173.09C329.944 170.961 326.148 168.602 325.173 169.718C324.495 170.501 325.385 172.786 326.656 174.82C324.507 173.962 322.176 173.583 321.679 174.556C321.007 175.861 323.883 179.125 326.22 180.706C326.081 180.686 325.93 180.672 325.772 180.659C323.042 180.449 318.779 181.389 318.682 182.936C318.616 184.025 320.62 185.126 322.769 185.755C320.632 186.653 318.64 188.046 318.815 189.147C319.033 190.485 322.388 190.958 325.027 190.681C323.06 192.79 320.922 196.568 321.812 197.676C322.466 198.487 324.573 197.649 326.475 196.372C325.56 198.71 325.07 201.278 325.905 201.9C327.007 202.724 330.041 199.852 331.633 197.385C331.47 200.406 332.117 204.556 333.401 204.718C333.94 204.786 334.509 204.144 335.024 203.164L333.571 226.675C333.231 229.412 335.405 231.203 335.599 232.325L335.914 248.247C335.556 247.112 335.084 245.95 334.436 244.801L334.37 244.848C334.455 243.212 334.255 236.076 324.84 233.933C322.618 233.427 320.529 233.082 318.616 232.852C316.357 232.582 315.473 236.035 317.514 237.15C320.468 238.766 323.247 240.8 324.701 243.206C328.406 249.362 333.522 245.808 334.255 245.253C335.066 246.767 335.599 248.288 335.938 249.734L336.107 258.189C336.065 258.391 336.041 258.499 336.035 258.506L336.114 258.533L336.519 278.997L340.261 278.963L338.923 258.047C339.147 256.918 339.837 253.073 338.923 249.085L337.585 232.649L335.841 226.189C336.095 224.188 336.683 221.945 337.881 219.721C338.608 220.275 343.73 223.837 347.436 217.673C348.883 215.267 351.668 213.233 354.623 211.618C356.663 210.503 355.785 207.05 353.521 207.32L353.515 207.333ZM336.422 255.749L336.35 252.167C336.489 253.519 336.483 254.742 336.422 255.749Z" fill="#F2F2F2"/>
<path d="M309.939 276.456L316.448 274.888L314.117 246.139L304.52 248.45L309.939 276.456Z" fill="#A0616A"/>
<path d="M332.196 270.921C332.475 271.252 332.82 272.455 332.905 272.901C333.171 274.259 332.396 275.604 331.173 275.895L311.029 280.754C310.2 280.957 309.376 280.362 309.195 279.436L309.013 278.497C309.013 278.497 307.469 275.922 308.849 271.962C308.849 271.962 311.925 274.063 314.91 268.887L315.594 266.346L325.015 271.022L329.641 270.556C330.652 270.455 331.5 270.083 332.19 270.921H332.196Z" fill="#2F2E41"/>
<path d="M321.576 274.259L327.001 269.961L314.728 244.551L306.718 250.89L321.576 274.259Z" fill="#A0616A"/>
<path d="M340.085 259.392C340.455 259.574 341.199 260.527 341.429 260.899C342.15 262.034 341.914 263.609 340.897 264.413L324.089 277.726C323.393 278.274 322.436 278.091 321.94 277.321L321.443 276.537C321.443 276.537 319.118 274.847 318.991 270.597C318.991 270.597 322.557 271.178 323.483 265.109L323.217 262.473L333.528 262.635L337.621 260.175C338.517 259.635 339.165 258.925 340.091 259.392H340.085Z" fill="#2F2E41"/>
<path d="M243.393 132.102C243.393 132.102 233.275 147.456 253.51 164.723L294.833 149.984L280.072 115.625L267 107.624L243.387 132.095L243.393 132.102Z" fill="#2F2E41"/>
<path d="M294.839 149.991L310.86 184.815L320.983 257.303L308.335 258.243L295.681 189.526L273.333 152.342L288.936 144.341" fill="#2F2E41"/>
<path d="M253.516 153.789V164.73L282.191 199.879C282.191 199.879 282.191 226.236 293.156 238.475L305.804 260.128L316.769 253.539L300.748 190.472L272.074 149.051L253.522 153.789H253.516Z" fill="#2F2E41"/>
<path d="M273.89 45.3269L268.489 68.3114L247.897 63.7902C247.897 63.7902 262.265 47.253 260.243 39.7177L273.896 45.3269H273.89Z" fill="#A0616A"/>
<path d="M258.154 48.7939L270.802 55.3831C270.802 55.3831 277.311 59.8232 277.432 62.7833C277.553 65.7433 276.705 79.8611 276.705 79.8611C276.705 79.8611 281.767 85.5109 278.395 96.8038L280.084 115.632L242.133 138.225L245.506 98.6893L243.817 61.979L258.154 48.8006V48.7939Z" fill="#3F3D56"/>
<path d="M246.801 155.924C248.285 159.715 251.24 161.939 253.401 160.885C255.563 159.83 256.113 155.904 254.636 152.113C254.061 150.585 253.171 149.24 252.033 148.179L245.572 132.196L238.918 135.738L245.99 151.119C245.911 152.768 246.19 154.417 246.801 155.924Z" fill="#A0616A"/>
<path d="M253.516 64.3309C253.516 64.3309 244.24 57.7417 240.868 65.2703C237.495 72.7989 229.903 111.395 229.903 111.395L240.868 148.105L250.985 143.401L242.127 103.893L253.51 64.3309H253.516Z" fill="#3F3D56"/>
<path d="M301.063 149.997C303.691 152.917 307.172 153.768 308.837 151.896C310.502 150.024 309.715 146.152 307.088 143.232C306.052 142.05 304.775 141.164 303.37 140.644L292.09 128.439L287.071 134.467L298.72 145.854C299.192 147.422 299.998 148.842 301.063 149.99V149.997Z" fill="#A0616A"/>
<path d="M277.075 62.0804C277.075 62.0804 260.903 61.3438 260.249 69.7306C259.601 78.1175 270.657 115.544 270.657 115.544L292.968 145.165L300.821 136.63L279.551 103.542L277.081 62.0804H277.075Z" fill="#3F3D56"/>
<path d="M229.721 130.04L216.213 84.2675C205.291 73.5288 193.442 99.3922 161.637 84.727L171.639 136.501C195.688 121.991 216.383 116.308 229.721 130.04Z" fill="white"/>
<path d="M171.639 137.853C171.554 137.853 171.464 137.833 171.385 137.792C171.209 137.704 171.088 137.528 171.046 137.319L161.043 85.5447C160.995 85.3014 161.074 85.0446 161.249 84.8824C161.425 84.7202 161.661 84.6797 161.867 84.7743C179.934 93.1003 191.595 88.1466 200.114 84.5242C206.587 81.7737 211.697 79.5975 216.613 84.4296C216.692 84.5107 216.752 84.6121 216.789 84.727L230.296 130.5C230.381 130.791 230.278 131.115 230.048 131.277C229.818 131.446 229.509 131.412 229.31 131.203C217.588 119.133 199.351 121.214 171.93 137.765C171.839 137.819 171.742 137.846 171.639 137.846V137.853ZM162.466 86.5044L172.057 136.157C198.37 120.43 216.395 118.004 228.462 128.635L215.681 85.3352C211.352 81.1992 206.804 83.132 200.538 85.7948C192.001 89.4239 180.37 94.3709 162.466 86.5111V86.5044Z" fill="#3F3D56"/>
<path d="M182.586 62.4589L174.037 64.4322C174.037 64.4322 151.187 78.4689 155.51 83.7876C159.827 89.1063 178.178 89.7888 178.178 89.7888L181.968 83.2402L177.379 80.841L189.016 70.1294L182.586 62.4589Z" fill="#A0616A"/>
<path d="M206.054 59.519C206.054 59.519 197.704 45.2255 189.549 51.5917C181.393 57.9579 174.043 64.4322 174.043 64.4322L184.202 78.7528L206.06 59.519H206.054Z" fill="#E6E6E6"/>
<path d="M192.682 89.6402C193.148 87.0721 189.798 84.1482 185.199 83.1096C180.601 82.071 176.496 83.3108 176.03 85.8789C175.565 88.4471 178.915 91.3709 183.513 92.4095C188.112 93.4482 192.217 92.2083 192.682 89.6402Z" fill="#A0616A"/>
<path d="M350.578 285.154C353.4 285.154 355.688 282.6 355.688 279.45C355.688 276.3 353.4 273.746 350.578 273.746C347.756 273.746 345.468 276.3 345.468 279.45C345.468 282.6 347.756 285.154 350.578 285.154Z" fill="#3F3D56"/>
<path d="M357.389 294C360.212 294 362.5 291.446 362.5 288.296C362.5 285.146 360.212 282.592 357.389 282.592C354.567 282.592 352.279 285.146 352.279 288.296C352.279 291.446 354.567 294 357.389 294Z" fill="#3F3D56"/>
<path d="M408.479 294C411.301 294 413.589 291.446 413.589 288.296C413.589 285.146 411.301 282.592 408.479 282.592C405.656 282.592 403.368 285.146 403.368 288.296C403.368 291.446 405.656 294 408.479 294Z" fill="#3F3D56"/>
<path d="M364.873 202.941V141.002C364.873 134.068 370.068 132.352 376.28 132.352C379.325 132.352 380.803 131.96 382.94 134.379C385.077 136.799 387.451 137.806 387.402 141.205L386.506 201.981L364.867 202.934L364.873 202.941ZM376.885 136.413C371.339 136.413 366.084 134.818 366.084 141.009V201.542L385.32 200.69L386.197 141.191C386.24 138.157 381.82 138.576 379.919 136.413C378.012 134.251 379.61 136.413 376.891 136.413H376.885Z" fill="#3F3D56"/>
<path d="M349.664 202.19L348.889 269.86C348.877 270.732 349.064 271.59 349.428 272.36L355.155 284.437C355.997 286.215 357.68 287.289 359.478 287.201L409.768 284.728C412.341 284.599 414.333 282.166 414.218 279.294L411.064 202.028C410.949 199.251 408.902 197.061 406.408 197.061H354.32C351.771 197.061 349.694 199.352 349.658 202.197L349.664 202.19Z" fill="#FF6584"/>
<path d="M369.487 232.731L368.276 232.663L368.724 222.647C368.966 217.254 372.944 212.929 377.782 212.801L399.197 212.247C403.52 212.166 407.104 215.822 407.34 220.647L407.794 229.804L406.583 229.879L406.129 220.721C405.924 216.633 402.866 213.497 399.221 213.598L377.806 214.152C373.598 214.261 370.141 218.025 369.929 222.715L369.481 232.731H369.487Z" fill="#3F3D56"/>
<path d="M368.633 281.241L367.428 281.105L370.038 252.681C370.522 247.423 374.451 243.28 379.18 243.044L400.069 241.996C402.702 241.861 405.203 242.902 407.116 244.922C409.03 246.943 410.095 249.673 410.125 252.613L410.362 277.361L409.151 277.375L408.914 252.627C408.89 250.058 407.958 247.673 406.287 245.902C404.616 244.132 402.418 243.226 400.129 243.341L379.241 244.388C375.105 244.598 371.672 248.214 371.249 252.809L368.639 281.234L368.633 281.241Z" fill="#3F3D56"/>
<path d="M359.272 279.274L358.062 279.254L358.824 214.294C358.879 209.854 362.033 206.272 366.011 206.137L407.183 204.786L407.219 206.137L366.048 207.489C362.718 207.597 360.078 210.591 360.035 214.308L359.272 279.267V279.274Z" fill="#3F3D56"/>
<path d="M359.381 270.022H358.54V210.861C358.54 208.989 357.178 207.462 355.494 207.462H350.79V206.11H355.494C357.716 206.11 359.545 208.023 359.733 210.442C359.745 210.577 359.751 210.719 359.751 210.861V238.874L359.381 270.022Z" fill="#3F3D56"/>
<path d="M282.681 33.0406C282.681 41.7045 276.39 48.7263 268.628 48.7263C260.866 48.7263 254.576 41.7045 254.576 33.0406C254.576 24.3766 260.866 17.3549 268.628 17.3549C276.39 17.3549 282.681 24.3766 282.681 33.0406Z" fill="#A0616A"/>
<path d="M267.508 11.9552C267.914 12.2187 268.459 11.82 268.592 11.3131C268.725 10.8063 268.568 10.2724 268.423 9.77228C268.168 8.93427 267.92 8.10302 267.666 7.265C267.127 5.48761 266.558 3.64939 265.395 2.29776C263.639 0.256797 260.842 -0.263581 258.329 0.114876C255.102 0.601463 251.918 2.54781 250.416 5.77821C248.915 9.00861 249.556 13.5095 252.269 15.5235C248.4 20.4704 247.056 25.9851 247.268 32.5405C247.48 39.1027 253.885 45.1377 258.063 49.7603C258.995 49.1318 259.843 46.1717 259.329 45.0972C258.814 44.0226 259.553 42.7791 258.917 41.7857C258.281 40.799 257.748 42.3736 258.39 41.3869C258.796 40.7652 257.215 39.3392 257.815 38.9675C260.727 37.1698 261.696 33.1149 263.524 30.013C265.734 26.2689 269.506 23.7346 273.508 23.3156C275.712 23.0858 278.037 23.5049 279.842 24.9308C281.646 26.3568 282.814 28.9046 282.397 31.3308C283.48 30.1008 284.019 28.3031 283.82 26.5933C283.614 24.8835 282.675 23.3021 281.337 22.4303C282.148 19.4364 281.452 15.9898 279.569 13.6785C277.686 11.3604 270.051 11.7592 267.302 12.3674L267.514 11.9619L267.508 11.9552Z" fill="#2F2E41"/>
<path d="M267.085 23.4034C263.446 23.8427 260.818 27.3637 258.596 30.6144C257.318 32.4864 255.974 34.5544 256.011 36.913C256.041 39.2919 257.47 41.3396 258.154 43.59C259.268 47.28 258.184 51.666 255.532 54.1936C258.154 54.7478 260.987 52.5581 261.436 49.6183C261.962 46.2055 259.643 42.9075 259.916 39.4541C260.158 36.4129 262.307 34.0746 264.13 31.7971C265.958 29.5196 267.672 26.5054 266.83 23.5994L267.085 23.4034Z" fill="#2F2E41"/>
</g>
<defs>
<clipPath id="clip0_53_362">
<rect width="443" height="294" fill="white" transform="translate(-4)"/>
</clipPath>
</defs>
</svg>
