<svg width="53" height="38" viewBox="0 0 53 38" fill="none" xmlns="http://www.w3.org/2000/svg">
<path d="M17.5331 3.88549C16.9121 4.33087 16.5632 4.93485 16.5632 5.56462C16.5632 6.19438 16.9121 6.79836 17.5331 7.24374L33.9299 19L17.5331 30.7562C16.9297 31.2042 16.5958 31.8041 16.6033 32.4268C16.6109 33.0495 16.9592 33.6452 17.5734 34.0856C18.1876 34.5259 19.0184 34.7757 19.8869 34.7811C20.7554 34.7865 21.5922 34.5471 22.2169 34.1145L40.9557 20.6791C41.5767 20.2337 41.9256 19.6298 41.9256 19C41.9256 18.3702 41.5767 17.7662 40.9557 17.3209L22.2169 3.88549C21.5957 3.44025 20.7533 3.19012 19.875 3.19012C18.9966 3.19012 18.1542 3.44025 17.5331 3.88549Z" fill="black"/>
</svg>
