<svg width="36" height="40" viewBox="0 0 36 40" fill="none" xmlns="http://www.w3.org/2000/svg">
<path fill-rule="evenodd" clip-rule="evenodd" d="M9 3.3335C7.80653 3.3335 6.66193 3.86028 5.81802 4.79796C4.97411 5.73564 4.5 7.00741 4.5 8.3335V31.6668C4.5 32.9929 4.97411 34.2647 5.81802 35.2024C6.66193 36.14 7.80653 36.6668 9 36.6668H18C19.1935 36.6668 20.3381 36.14 21.182 35.2024C22.0259 34.2647 22.5 32.9929 22.5 31.6668V8.3335C22.5 7.00741 22.0259 5.73564 21.182 4.79796C20.3381 3.86028 19.1935 3.3335 18 3.3335H9ZM24.4395 12.1552C24.7208 11.8427 25.1023 11.6672 25.5 11.6672C25.8977 11.6672 26.2792 11.8427 26.5605 12.1552L32.5605 18.8218C32.8417 19.1344 32.9997 19.5582 32.9997 20.0002C32.9997 20.4421 32.8417 20.8659 32.5605 21.1785L26.5605 27.8452C26.2776 28.1488 25.8987 28.3168 25.5054 28.313C25.1121 28.3092 24.7359 28.1339 24.4578 27.8249C24.1797 27.5158 24.0219 27.0978 24.0185 26.6608C24.0151 26.2238 24.1663 25.8028 24.4395 25.4885L27.879 21.6668H15C14.6022 21.6668 14.2206 21.4912 13.9393 21.1787C13.658 20.8661 13.5 20.4422 13.5 20.0002C13.5 19.5581 13.658 19.1342 13.9393 18.8217C14.2206 18.5091 14.6022 18.3335 15 18.3335H27.879L24.4395 14.5118C24.1583 14.1993 24.0003 13.7754 24.0003 13.3335C24.0003 12.8916 24.1583 12.4677 24.4395 12.1552Z" fill="black"/>
</svg>
