<svg width="45" height="44" viewBox="0 0 45 44" fill="none" xmlns="http://www.w3.org/2000/svg">
<rect x="1" y="1" width="43" height="42" rx="18" fill="white" stroke="black" stroke-width="2"/>
<path d="M13.25 16.5H21.7916C22.2447 16.5 22.6792 16.658 22.9996 16.9393C23.32 17.2206 23.5 17.6022 23.5 18C23.5 18.3978 23.32 18.7794 22.9996 19.0607C22.6792 19.342 22.2447 19.5 21.7916 19.5H13.25C12.7969 19.5 12.3624 19.342 12.042 19.0607C11.7216 18.7794 11.5416 18.3978 11.5416 18C11.5416 17.6022 11.7216 17.2206 12.042 16.9393C12.3624 16.658 12.7969 16.5 13.25 16.5ZM25.2083 28.5H33.75C34.203 28.5 34.6376 28.658 34.9579 28.9393C35.2783 29.2206 35.4583 29.6022 35.4583 30C35.4583 30.3978 35.2783 30.7794 34.9579 31.0607C34.6376 31.342 34.203 31.5 33.75 31.5H25.2083C24.7552 31.5 24.3207 31.342 24.0003 31.0607C23.6799 30.7794 23.5 30.3978 23.5 30C23.5 29.6022 23.6799 29.2206 24.0003 28.9393C24.3207 28.658 24.7552 28.5 25.2083 28.5ZM13.25 22.5H33.75C34.203 22.5 34.6376 22.658 34.9579 22.9393C35.2783 23.2206 35.4583 23.6022 35.4583 24C35.4583 24.3978 35.2783 24.7794 34.9579 25.0607C34.6376 25.342 34.203 25.5 33.75 25.5H13.25C12.7969 25.5 12.3624 25.342 12.042 25.0607C11.7216 24.7794 11.5416 24.3978 11.5416 24C11.5416 23.6022 11.7216 23.2206 12.042 22.9393C12.3624 22.658 12.7969 22.5 13.25 22.5Z" fill="black"/>
</svg>
