<svg width="67" height="69" viewBox="0 0 67 69" fill="none" xmlns="http://www.w3.org/2000/svg">
<path d="M27.2188 19.4062H20.9375C19.8269 19.4062 18.7618 19.8606 17.9765 20.6694C17.1912 21.4781 16.75 22.575 16.75 23.7188V43.5778C21.597 45.0096 25.125 49.6628 25.125 55.0728C25.125 56.4614 24.2372 57.6732 22.9894 58.0764C22.9842 58.1239 22.9786 58.1714 22.9726 58.2188H41.1883C39.6729 56.9576 38.5744 55.2437 38.0441 53.313C37.5138 51.3822 37.5777 49.3297 38.2271 47.4379C38.8764 45.5462 40.0793 43.9083 41.67 42.7497C43.2607 41.5912 45.1611 40.9689 47.1094 40.9688H55.6644C56.7008 40.9688 57.6954 41.1434 58.625 41.4668V40.9688C58.625 39.2531 57.9632 37.6078 56.7853 36.3947C55.6073 35.1815 54.0096 34.5 52.3438 34.5H30.3594C30.0817 34.5 29.8154 34.6136 29.6191 34.8158C29.4228 35.018 29.3125 35.2922 29.3125 35.5781V38.8125C29.3125 39.9562 29.7537 41.0531 30.539 41.8619C31.3243 42.6706 32.3894 43.125 33.5 43.125H34.5469C35.3798 43.125 36.1786 43.4658 36.7676 44.0723C37.3566 44.6789 37.6875 45.5016 37.6875 46.3594C37.6875 47.2172 37.3566 48.0399 36.7676 48.6464C36.1786 49.253 35.3798 49.5938 34.5469 49.5938H26.5215C26.1511 49.5938 25.7959 49.4422 25.534 49.1725C25.2721 48.9028 25.125 48.537 25.125 48.1555V23.7188H27.2188C27.774 23.7188 28.3066 23.4916 28.6993 23.0872C29.0919 22.6828 29.3125 22.1344 29.3125 21.5625C29.3125 20.9906 29.0919 20.4422 28.6993 20.0378C28.3066 19.6334 27.774 19.4062 27.2188 19.4062Z" fill="black"/>
<path d="M32.8028 28.0312C30.8765 28.0312 29.3125 29.6398 29.3125 31.6257C29.3125 32.0225 29.6266 32.3438 30.0097 32.3438H47.459C47.8443 32.3438 48.1563 32.0203 48.1563 31.6257C48.1563 29.642 46.5943 28.0312 44.666 28.0312H32.8028ZM20.9375 57.1406C20.9357 58.1761 20.727 59.2001 20.3244 60.1489C19.9218 61.0977 19.3339 61.9511 18.5974 62.6559C17.8608 63.3606 16.9912 63.9018 16.0429 64.2457C15.0945 64.5895 14.0875 64.7287 13.0847 64.6545C12.0818 64.5804 11.1045 64.2945 10.2135 63.8147C9.32256 63.3349 8.537 62.6713 7.90572 61.8654C7.27445 61.0595 6.81096 60.1284 6.5441 59.1301C6.27724 58.1318 6.21271 57.0876 6.35453 56.0625H5.14016C4.88656 56.0608 4.64394 55.9557 4.46541 55.7702C4.28687 55.5847 4.18694 55.334 4.1875 55.0728C4.1875 49.7145 8.40641 45.2812 13.6094 45.2812C18.8123 45.2812 23.0313 49.7145 23.0313 55.0728C23.0318 55.3336 22.9322 55.584 22.7541 55.7695C22.576 55.9549 22.3339 56.0602 22.0807 56.0625H20.8642C20.9124 56.414 20.9375 56.7741 20.9375 57.1406ZM10.6467 56.0625C10.4801 56.5502 10.4295 57.0719 10.499 57.584C10.5686 58.096 10.7563 58.5834 11.0465 59.0053C11.3367 59.4272 11.7208 59.7713 12.1667 60.0088C12.6127 60.2463 13.1074 60.3702 13.6094 60.3702C14.1114 60.3702 14.6061 60.2463 15.052 60.0088C15.4979 59.7713 15.8821 59.4272 16.1723 59.0053C16.4624 58.5834 16.6502 58.096 16.7197 57.584C16.7893 57.0719 16.7386 56.5502 16.572 56.0625H10.6467ZM60.6455 58.2188C60.392 60.0203 59.515 61.6669 58.1759 62.8552C56.8368 64.0435 55.1258 64.6934 53.3582 64.6853C51.5906 64.6772 49.8854 64.0115 48.5567 62.8109C47.2279 61.6104 46.3652 59.9558 46.1274 58.1519C44.284 57.8976 42.6035 56.9309 41.4265 55.4478C40.2495 53.9647 39.6641 52.0762 39.789 50.1651C39.9138 48.254 40.7397 46.4634 42.099 45.1561C43.4583 43.8488 45.2495 43.1227 47.1094 43.125H55.6644C57.5602 43.125 59.3784 43.9006 60.7189 45.2811C62.0594 46.6617 62.8125 48.5341 62.8125 50.4864V56.0625C62.8125 56.6344 62.5919 57.1828 62.1993 57.5872C61.8066 57.9916 61.2741 58.2188 60.7188 58.2188H60.6455ZM50.428 58.2188C50.6438 58.8505 51.0447 59.3977 51.5754 59.7848C52.106 60.1719 52.7403 60.3798 53.3906 60.3798C54.0409 60.3798 54.6752 60.1719 55.2059 59.7848C55.7366 59.3977 56.1375 58.8505 56.3533 58.2188H50.428Z" fill="black"/>
</svg>
