<svg width="47" height="46" viewBox="0 0 47 46" fill="none" xmlns="http://www.w3.org/2000/svg">
<g clip-path="url(#clip0_9_176)">
<path d="M26.4375 13.6562C26.4375 13.0843 26.6697 12.5359 27.0828 12.1315C27.496 11.7271 28.0564 11.4999 28.6407 11.4999H40.3907C40.8261 11.5003 41.2517 11.627 41.6137 11.8639C41.9756 12.1009 42.2577 12.4375 42.4243 12.8313C42.5909 13.2251 42.6345 13.6583 42.5496 14.0763C42.4648 14.4944 42.2553 14.8784 41.9476 15.1799L36.3957 20.6194C37.3122 20.8379 38.1699 21.1369 38.9425 21.5366C41.1221 22.6607 42.5967 24.5927 42.5967 27.3009C42.5967 29.1783 41.9182 30.7739 40.7491 31.9786C39.6152 33.1516 38.1229 33.8559 36.6131 34.2124C33.6462 34.9111 30.0771 34.3936 27.4363 32.6973C26.9847 32.3689 26.6784 31.884 26.58 31.3418C26.4817 30.7996 26.5987 30.2412 26.9071 29.7806C27.2156 29.3201 27.6921 28.9923 28.2393 28.8643C28.7866 28.7363 29.3631 28.8178 29.8509 29.0921C31.4195 30.0983 33.7284 30.4548 35.582 30.0178C36.4809 29.8079 37.1389 29.4399 37.5501 29.0144C37.9291 28.6234 38.1905 28.0944 38.1905 27.3009C38.1905 26.4154 37.8292 25.8376 36.8862 25.3517C35.7906 24.7853 34.0075 24.4374 31.5811 24.4374C31.1457 24.4371 30.7201 24.3104 30.3581 24.0735C29.9962 23.8365 29.7141 23.4999 29.5475 23.1061C29.3809 22.7123 29.3373 22.2791 29.4222 21.8611C29.507 21.443 29.7165 21.059 30.0242 20.7574L35.0767 15.8124H28.6407C28.0564 15.8124 27.496 15.5853 27.0828 15.1809C26.6697 14.7765 26.4375 14.2281 26.4375 13.6562ZM15.9007 30.2248C14.8726 30.0811 13.6389 30.5497 13.0132 31.8693C12.8952 32.132 12.7248 32.369 12.512 32.5664C12.2993 32.7638 12.0484 32.9177 11.7741 33.019C11.4998 33.1203 11.2076 33.167 10.9146 33.1563C10.6216 33.1457 10.3338 33.0779 10.0679 32.957C9.80201 32.836 9.56347 32.6644 9.36624 32.4521C9.16902 32.2398 9.01707 31.9911 8.91931 31.7206C8.82155 31.45 8.77993 31.1632 8.79691 30.8767C8.81389 30.5902 8.88911 30.31 9.01817 30.0523C10.5104 26.9071 13.6859 25.5529 16.5323 25.9554C19.4698 26.3723 22.0313 28.6723 22.0313 32.3437C22.0313 36.4636 18.8353 38.6457 16.7732 40.0516C15.8684 40.6726 15.0959 41.1929 14.5054 41.6989H20.5625C21.1469 41.6989 21.7072 41.9261 22.1204 42.3305C22.5336 42.7349 22.7657 43.2833 22.7657 43.8552C22.7657 44.4271 22.5336 44.9755 22.1204 45.3799C21.7072 45.7843 21.1469 46.0114 20.5625 46.0114H11.0157C10.4314 46.0114 9.871 45.7843 9.45783 45.3799C9.04466 44.9755 8.81255 44.4271 8.81255 43.8552C8.81255 41.8714 9.6938 40.3736 10.7807 39.2264C11.8029 38.1569 13.1307 37.2829 14.1588 36.5814C16.5088 34.9714 17.6251 33.9824 17.6251 32.3437C17.6251 30.9838 16.8407 30.3599 15.9007 30.2248ZM16.4618 0.255821C16.8132 0.43996 17.107 0.713959 17.3118 1.04862C17.5167 1.38328 17.6249 1.76607 17.6251 2.1562V15.8699H19.7136C20.2979 15.8699 20.8583 16.0971 21.2715 16.5015C21.6846 16.9059 21.9167 17.4543 21.9167 18.0262C21.9167 18.5981 21.6846 19.1465 21.2715 19.5509C20.8583 19.9553 20.2979 20.1824 19.7136 20.1824H11.0421C10.4578 20.1824 9.89743 19.9553 9.48427 19.5509C9.0711 19.1465 8.83899 18.5981 8.83899 18.0262C8.83899 17.4543 9.0711 16.9059 9.48427 16.5015C9.89743 16.0971 10.4578 15.8699 11.0421 15.8699H13.2188V6.1812L12.2377 6.82232C11.7515 7.13205 11.1601 7.2416 10.5919 7.12719C10.0237 7.01278 9.52451 6.68365 9.20272 6.21124C8.88093 5.73883 8.76251 5.16127 8.87315 4.60393C8.98379 4.04658 9.31456 3.55444 9.79368 3.23432L14.1999 0.359321C14.5318 0.142886 14.9175 0.0186771 15.3158 -5.69597e-05C15.7142 -0.018791 16.1102 0.0686522 16.4618 0.252946V0.255821Z" fill="black"/>
</g>
<defs>
<clipPath id="clip0_9_176">
<rect width="47" height="46" fill="white"/>
</clipPath>
</defs>
</svg>
