<svg width="39" height="40" viewBox="0 0 39 40" fill="none" xmlns="http://www.w3.org/2000/svg">
<g clip-path="url(#clip0_127_13)">
<path fill-rule="evenodd" clip-rule="evenodd" d="M19.5 36.25C22.2814 36.2542 25.0145 35.5038 27.4219 34.075V28.75C27.4219 27.2582 26.8441 25.8274 25.8155 24.7725C24.787 23.7176 23.392 23.125 21.9375 23.125H17.0625C15.608 23.125 14.213 23.7176 13.1845 24.7725C12.1559 25.8274 11.5781 27.2582 11.5781 28.75V34.075C13.9855 35.5038 16.7186 36.2542 19.5 36.25ZM31.0781 28.75V31.0925C33.1858 28.7783 34.5883 25.8828 35.1132 22.7621C35.638 19.6413 35.2624 16.4313 34.0324 13.5266C32.8024 10.6218 30.7717 8.14903 28.1899 6.41211C25.608 4.67519 22.5877 3.74985 19.5 3.74985C16.4123 3.74985 13.392 4.67519 10.8101 6.41211C8.22833 8.14903 6.19762 10.6218 4.96762 13.5266C3.73763 16.4313 3.36197 19.6413 3.88682 22.7621C4.41167 25.8828 5.81416 28.7783 7.92188 31.0925V28.75C7.92186 26.8172 8.50398 24.9316 9.58864 23.351C10.6733 21.7705 12.2075 20.5722 13.9815 19.92C13.0611 18.8342 12.4646 17.4997 12.2632 16.0757C12.0619 14.6518 12.2641 13.1985 12.8458 11.8892C13.4275 10.5799 14.3642 9.46986 15.544 8.69146C16.7239 7.91307 18.0971 7.49919 19.5 7.49919C20.9029 7.49919 22.2761 7.91307 23.456 8.69146C24.6358 9.46986 25.5725 10.5799 26.1542 11.8892C26.7359 13.1985 26.9381 14.6518 26.7368 16.0757C26.5354 17.4997 25.9389 18.8342 25.0185 19.92C26.7925 20.5722 28.3267 21.7705 29.4114 23.351C30.496 24.9316 31.0781 26.8172 31.0781 28.75ZM19.5 40C24.6717 40 29.6316 37.8929 33.2886 34.1421C36.9455 30.3914 39 25.3043 39 20C39 14.6957 36.9455 9.60859 33.2886 5.85786C29.6316 2.10714 24.6717 0 19.5 0C14.3283 0 9.36838 2.10714 5.71142 5.85786C2.05446 9.60859 0 14.6957 0 20C0 25.3043 2.05446 30.3914 5.71142 34.1421C9.36838 37.8929 14.3283 40 19.5 40ZM23.1562 15C23.1562 15.9946 22.771 16.9484 22.0854 17.6517C21.3997 18.3549 20.4697 18.75 19.5 18.75C18.5303 18.75 17.6003 18.3549 16.9146 17.6517C16.229 16.9484 15.8438 15.9946 15.8438 15C15.8438 14.0054 16.229 13.0516 16.9146 12.3483C17.6003 11.6451 18.5303 11.25 19.5 11.25C20.4697 11.25 21.3997 11.6451 22.0854 12.3483C22.771 13.0516 23.1562 14.0054 23.1562 15Z" fill="black"/>
</g>
<defs>
<clipPath id="clip0_127_13">
<rect width="39" height="40" fill="white"/>
</clipPath>
</defs>
</svg>
