<svg width="26" height="27" viewBox="0 0 26 27" fill="none" xmlns="http://www.w3.org/2000/svg">
<g clip-path="url(#clip0_90_9)">
<path fill-rule="evenodd" clip-rule="evenodd" d="M13.8667 1.8324V0H12.1333V1.8324C9.45365 2.04686 6.93605 3.24902 5.03497 5.22189C3.13389 7.19477 1.97457 9.80839 1.76627 12.591H0V14.391H1.76627C1.97378 17.1755 3.13243 19.7913 5.03329 21.767C6.93416 23.7426 9.45217 24.948 12.1333 25.1658V27H13.8667V25.1658C16.5478 24.948 19.0658 23.7426 20.9667 21.767C22.8676 19.7913 24.0262 17.1755 24.2337 14.391H26V12.591H24.2337C24.0254 9.80839 22.8661 7.19477 20.965 5.22189C19.0639 3.24902 16.5464 2.04686 13.8667 1.8324ZM13.8667 5.4V12.591H20.8V14.391H13.8667V21.6H12.1333V14.391H5.2V12.591H12.1333V5.4H13.8667Z" fill="#FFDE30"/>
</g>
<defs>
<clipPath id="clip0_90_9">
<rect width="26" height="27" fill="white"/>
</clipPath>
</defs>
</svg>
