<svg width="86" height="92" viewBox="0 0 86 92" fill="none" xmlns="http://www.w3.org/2000/svg">
<path d="M55.2517 70.3045C55.5161 70.7383 55.6661 71.2405 55.6858 71.7579C55.7056 72.2753 55.5943 72.7889 55.3637 73.2443C55.1331 73.6996 54.7919 74.0799 54.376 74.345C53.9601 74.61 53.485 74.7499 53.0009 74.75H3.43668C2.95258 74.7499 2.47749 74.61 2.06159 74.345C1.64569 74.0799 1.30444 73.6996 1.07388 73.2443C0.843324 72.7889 0.732025 72.2753 0.751742 71.7579C0.77146 71.2405 0.921463 70.7383 1.1859 70.3045C4.96891 64.0752 10.5333 59.3214 17.0489 56.7525C13.4469 54.1873 10.7123 50.4501 9.2494 46.0936C7.78648 41.7372 7.67293 36.9927 8.92554 32.5619C10.1781 28.1311 12.7304 24.2491 16.2049 21.49C19.6794 18.7309 23.8917 17.2413 28.2188 17.2413C32.5459 17.2413 36.7582 18.7309 40.2327 21.49C43.7072 24.2491 46.2594 28.1311 47.5121 32.5619C48.7647 36.9927 48.6511 41.7372 47.1882 46.0936C45.7253 50.4501 42.9906 54.1873 39.3887 56.7525C45.9042 59.3214 51.4687 64.0752 55.2517 70.3045ZM84.784 70.2506C80.9999 64.0476 75.4479 59.3142 68.9512 56.7525C73.2035 53.6883 76.2044 49.0058 77.3431 43.6581C78.4819 38.3104 77.6729 32.6995 75.0808 27.9674C72.4887 23.2353 68.3083 19.7377 63.3906 18.1866C58.4729 16.6355 53.1875 17.1475 48.6102 19.6183C48.4352 19.715 48.2822 19.8516 48.162 20.0186C48.0418 20.1856 47.9574 20.3787 47.9148 20.5845C47.8722 20.7902 47.8723 21.0035 47.9153 21.2091C47.9583 21.4148 48.043 21.6078 48.1634 21.7745C51.567 26.3164 53.5217 31.9047 53.7411 37.7211C53.9606 43.5375 52.4333 49.2762 49.3829 54.0967C49.1857 54.4118 49.1128 54.7973 49.1802 55.1696C49.2475 55.5418 49.4495 55.8705 49.7423 56.0841C53.7194 59.0535 57.1242 62.8153 59.77 67.1636C60.8371 68.9118 61.273 71.0157 60.9962 73.0825C60.9651 73.2881 60.976 73.4985 61.0284 73.6991C61.0808 73.8997 61.1732 74.0857 61.2995 74.2443C61.4257 74.4029 61.5826 74.5303 61.7593 74.6176C61.9361 74.7049 62.1285 74.7501 62.3232 74.75H82.5802C83.172 74.7502 83.7473 74.5414 84.2168 74.1561C84.6864 73.7708 85.0239 73.2304 85.177 72.6189C85.2704 72.2168 85.2837 71.7981 85.216 71.39C85.1483 70.982 85.0011 70.5938 84.784 70.2506Z" fill="black"/>
</svg>
